<svg xmlns="http://www.w3.org/2000/svg" width="30" height="30" viewBox="0 0 30 30" fill="none">
<path d="M13.0018 15.7381C12.9062 15.8587 12.7874 15.9589 12.6525 16.0328C12.5175 16.1067 12.3692 16.153 12.2162 16.1687C12.0631 16.1845 11.9085 16.1695 11.7613 16.1246C11.6141 16.0797 11.4774 16.0059 11.3592 15.9074C11.241 15.8089 11.1437 15.6877 11.073 15.5511C11.0024 15.4144 10.9597 15.265 10.9476 15.1116C10.9355 14.9582 10.9542 14.804 11.0027 14.658C11.0511 14.5119 11.1282 14.377 11.2295 14.2612L16.9987 7.33815C17.0943 7.21762 17.2131 7.11744 17.348 7.04349C17.483 6.96955 17.6313 6.92333 17.7843 6.90756C17.9374 6.8918 18.092 6.9068 18.2392 6.95168C18.3864 6.99656 18.5231 7.07043 18.6413 7.16892C18.7595 7.26742 18.8568 7.38856 18.9275 7.52522C18.9981 7.66187 19.0408 7.81129 19.0529 7.96467C19.065 8.11805 19.0463 8.2723 18.9979 8.41834C18.9494 8.56438 18.8723 8.69927 18.771 8.81507L13.0018 15.7381Z" fill="#FFF9F2"/>
<path d="M18.7708 21.1846C18.958 21.4206 19.0456 21.7204 19.0147 22.0201C18.9838 22.3197 18.837 22.5954 18.6056 22.7882C18.3742 22.9811 18.0765 23.0758 17.7763 23.0521C17.476 23.0284 17.1968 22.8883 16.9985 22.6616L11.2293 15.7385C11.128 15.6227 11.0508 15.4878 11.0024 15.3417C10.954 15.1957 10.9353 15.0414 10.9474 14.8881C10.9595 14.7347 11.0021 14.5853 11.0728 14.4486C11.1435 14.312 11.2408 14.1908 11.359 14.0923C11.4772 13.9938 11.6139 13.92 11.7611 13.8751C11.9082 13.8302 12.0629 13.8152 12.2159 13.831C12.369 13.8467 12.5173 13.8929 12.6522 13.9669C12.7872 14.0408 12.9059 14.141 13.0016 14.2615L18.7708 21.1846Z" fill="#FFF9F2"/>
<path fill-rule="evenodd" clip-rule="evenodd" d="M15 2.30769C7.99039 2.30769 2.3077 7.99038 2.30769 15C2.30769 22.0096 7.99039 27.6923 15 27.6923C22.0096 27.6923 27.6923 22.0096 27.6923 15C27.6923 7.99038 22.0096 2.30769 15 2.30769ZM15 -1.31134e-06C6.71539 -2.03561e-06 2.03561e-06 6.71538 1.31134e-06 15C5.87078e-07 23.2846 6.71539 30 15 30C23.2846 30 30 23.2846 30 15C30 6.71539 23.2846 -5.87078e-07 15 -1.31134e-06Z" fill="#FFF9F2"/>
</svg>