<svg width="244" height="209" viewBox="0 0 244 209" fill="none" xmlns="http://www.w3.org/2000/svg">
<path d="M210.255 45.7427C266.505 38.0386 289.382 12.0376 293.789 2.98871e-05L301 3.05176e-05L265.543 261.214C167.187 264.826 -23.1567 269.881 2.32388 261.214C34.1747 250.381 18.5497 215.472 44.3909 176.35C70.2321 137.228 96.0733 149.265 125.52 114.357C154.967 79.4477 139.943 55.3727 210.255 45.7427Z" fill="#FFB77B"/>
<path d="M242 35C213.167 35.5 163.5 26 147.5 64.5C136.325 91.3907 93.094 124.263 80 134.5C52.5 156 53.6667 172 48.5 188.5" stroke="#FFB77B"/>
<path d="M217.5 59.6916C188.667 60.1916 139 50.6916 123 89.1916C111.825 116.082 68.594 148.954 55.5 159.192C28 180.692 29.1667 196.692 24 213.192" stroke="#FFB77B"/>
</svg>
