<svg width="168" height="216" viewBox="0 0 168 216" fill="none" xmlns="http://www.w3.org/2000/svg">
<path d="M-7.5 177.975C-54.3 184.375 -73.3333 205.975 -77 215.975H-83L-53.5 -1.02451C28.3333 -4.02451 186.7 -8.22451 165.5 -1.02451C139 7.97549 152 36.9755 130.5 69.4755C109 101.975 87.5 91.9755 63 120.975C38.5 149.975 51 169.975 -7.5 177.975Z" fill="#FF8B76"/>
<path d="M-4 178C10.8333 178.333 43 171.1 53 139.5C63 107.9 87.5 90 98.5 85M141.5 45C139.167 58.1667 129.1 86.6 107.5 95C80.5 105.5 71 113.5 63.5 130.5C56 147.5 38.5 158.5 28 156.5" stroke="#FF8B76"/>
</svg>
