<svg width="17" height="12" viewBox="0 0 17 12" fill="none" xmlns="http://www.w3.org/2000/svg">
<ellipse cx="8.43512" cy="8.50008" rx="2.8117" ry="2.83333" fill="#3c0f6d"/>
<path fill-rule="evenodd" clip-rule="evenodd" d="M16.8702 8.55908C16.8706 8.8871 16.7541 9.20412 16.5425 9.45143C16.3308 9.69874 16.0383 9.85958 15.7191 9.90416C15.3999 9.94874 15.0756 9.87404 14.8064 9.69389C14.5371 9.51374 14.3411 9.24036 14.2547 8.92437C12.5255 3.0454 4.34494 3.0445 2.6122 8.91985C2.56351 9.09168 2.48192 9.25202 2.37213 9.39162C2.26233 9.53122 2.1265 9.64734 1.97245 9.73329C1.8184 9.81924 1.64918 9.87333 1.47452 9.89243C1.29986 9.91154 1.12321 9.89528 0.954742 9.84461C0.786276 9.79394 0.629314 9.70985 0.492895 9.59717C0.356478 9.4845 0.243294 9.34547 0.159861 9.18809C0.0764275 9.03071 0.0243894 8.85808 0.0067464 8.68015C-0.0108985 8.50221 0.00620093 8.32248 0.0570547 8.1513C0.360592 7.0956 0.848906 6.10438 1.49849 5.22538L0.645884 4.35736C0.518706 4.23219 0.417286 4.08249 0.347544 3.91698C0.277804 3.75148 0.241137 3.57349 0.239684 3.39341C0.23823 3.21332 0.272019 3.03475 0.339081 2.8681C0.406142 2.70145 0.505133 2.55007 0.630274 2.42279C0.755416 2.29551 0.904204 2.19487 1.06796 2.12676C1.23171 2.05864 1.40715 2.02441 1.58403 2.02606C1.76092 2.02771 1.93571 2.0652 2.09821 2.13636C2.26071 2.20752 2.40766 2.31091 2.5305 2.44051L3.42751 3.35373C3.89379 3.02867 4.39062 2.75154 4.91068 2.5264L4.69487 1.70722C4.613 1.36312 4.66654 1.00007 4.84406 0.695617C5.02158 0.391168 5.309 0.16946 5.64493 0.0778522C5.98085 -0.0137558 6.33864 0.0320006 6.64188 0.205347C6.94511 0.378694 7.16974 0.665887 7.26778 1.00558L7.4907 1.85098C8.11683 1.78498 8.74918 1.78498 9.37531 1.85098L9.59734 1.00558C9.68874 0.658102 9.91197 0.361821 10.2179 0.181911C10.5239 0.00200025 10.8875 -0.0468011 11.2288 0.0462432C11.5701 0.139287 11.8612 0.366554 12.0379 0.678048C12.2146 0.989541 12.2625 1.35975 12.1711 1.70722L11.9562 2.52731C12.476 2.75218 12.9725 3.02901 13.4385 3.35373L14.3355 2.44051C14.4583 2.31091 14.6053 2.20752 14.7678 2.13636C14.9303 2.0652 15.1051 2.02771 15.282 2.02606C15.4589 2.02441 15.6343 2.05864 15.7981 2.12676C15.9618 2.19487 16.1106 2.29551 16.2357 2.42279C16.3609 2.55007 16.4599 2.70146 16.5269 2.8681C16.594 3.03475 16.6278 3.21333 16.6263 3.39341C16.6249 3.5735 16.5882 3.75148 16.5185 3.91699C16.4487 4.08249 16.3473 4.23219 16.2201 4.35737L15.3675 5.22538C16.0156 6.10293 16.503 7.09225 16.8063 8.14587C16.8485 8.27942 16.87 8.41881 16.8702 8.55908Z" fill="#3c0f6d"/>
</svg>
