<svg width="17" height="10" viewBox="0 0 17 10" fill="none" xmlns="http://www.w3.org/2000/svg">
<path fill-rule="evenodd" clip-rule="evenodd" d="M7.04325e-07 1.35779C-0.000330437 1.02977 0.116114 0.712752 0.327766 0.465441C0.539419 0.21813 0.831936 0.0572896 1.15114 0.0127097C1.47034 -0.0318702 1.7946 0.0428319 2.06385 0.22298C2.3331 0.403127 2.5291 0.676512 2.61554 0.992499C4.34473 6.87147 12.5253 6.87237 14.258 0.99702C14.3067 0.825186 14.3883 0.664854 14.4981 0.525249C14.6079 0.385645 14.7437 0.269526 14.8978 0.183576C15.0518 0.0976263 15.2211 0.0435425 15.3957 0.0244377C15.5704 0.00533295 15.747 0.0215845 15.9155 0.072257C16.084 0.122929 16.2409 0.207022 16.3773 0.319695C16.5138 0.432368 16.6269 0.571397 16.7104 0.728778C16.7938 0.886159 16.8458 1.05879 16.8635 1.23672C16.8811 1.41466 16.864 1.59439 16.8132 1.76557C16.5096 2.82127 16.0213 3.81249 15.3718 4.69149L16.2244 5.5595C16.3515 5.68468 16.453 5.83438 16.5227 5.99989C16.5924 6.16539 16.6291 6.34337 16.6306 6.52346C16.632 6.70354 16.5982 6.88212 16.5312 7.04877C16.4641 7.21541 16.3651 7.3668 16.24 7.49408C16.1148 7.62136 15.966 7.722 15.8023 7.79011C15.6385 7.85823 15.4631 7.89246 15.2862 7.89081C15.1093 7.88916 14.9345 7.85167 14.772 7.78051C14.6095 7.70935 14.4626 7.60596 14.3397 7.47636L13.4427 6.56314C12.9764 6.8882 12.4796 7.16533 11.9596 7.39046L12.1754 8.20965C12.2572 8.55375 12.2037 8.9168 12.0262 9.22125C11.8487 9.5257 11.5612 9.74741 11.2253 9.83902C10.8894 9.93062 10.5316 9.88487 10.2284 9.71152C9.92513 9.53818 9.7005 9.25098 9.60246 8.91129L9.37954 8.06589C8.75341 8.13189 8.12106 8.13189 7.49493 8.06589L7.2729 8.91129C7.1815 9.25877 6.95827 9.55505 6.65231 9.73496C6.34634 9.91487 5.98271 9.96367 5.6414 9.87063C5.30009 9.77758 5.00907 9.55032 4.83236 9.23882C4.65564 8.92733 4.6077 8.55712 4.6991 8.20965L4.91402 7.38956C4.39429 7.16469 3.89776 6.88786 3.43173 6.56314L2.53472 7.47636C2.41189 7.60596 2.26494 7.70935 2.10244 7.78051C1.93994 7.85167 1.76515 7.88916 1.58826 7.89081C1.41137 7.89246 1.23594 7.85823 1.07218 7.79011C0.908431 7.722 0.759643 7.62136 0.634501 7.49408C0.509359 7.3668 0.41037 7.21541 0.343309 7.04877C0.276248 6.88212 0.242458 6.70354 0.243911 6.52346C0.245364 6.34337 0.282031 6.16539 0.351772 5.99989C0.421514 5.83438 0.522933 5.68468 0.650112 5.5595L1.50272 4.69149C0.854614 3.81394 0.367228 2.82462 0.0639461 1.771C0.02177 1.63746 0.000198364 1.49806 7.04325e-07 1.35779Z" fill="#FF8B76"/>
</svg>
