<svg width="245" height="319" viewBox="0 0 245 319" fill="none" xmlns="http://www.w3.org/2000/svg">
<path d="M136.96 221.182C137.006 221.121 137.051 221.061 137.097 221.003C137.097 221.11 137.093 221.221 137.089 221.326C137.043 221.281 137.002 221.231 136.96 221.182Z" fill="url(#paint0_linear_53_129)"/>
<path d="M162.591 168.609C153.146 176.258 146.061 186.153 141.788 197.199C141.777 197.093 141.773 196.986 141.765 196.877C132.524 205.854 121.316 212.805 108.85 217.016C110.269 217.872 111.552 218.967 112.657 220.25C109.815 224.073 105.488 226.515 100.647 226.515C96.2112 226.515 92.2075 224.465 89.3814 221.186C86.589 221.456 83.7537 221.597 80.8886 221.597C77.6898 221.597 74.5287 221.425 71.4208 221.087C74.3729 233.899 80.1291 245.634 88.004 255.612C88.004 255.612 88.0053 255.614 88.0079 255.62C89.3969 257.38 90.8496 259.085 92.3685 260.733C92.3685 260.737 92.3724 260.737 92.3763 260.741C92.4101 260.775 92.449 260.806 92.4789 260.84C93.594 261.874 94.6534 262.966 95.6556 264.115L95.6633 264.123C95.788 264.267 95.9139 264.412 96.0385 264.56C96.0385 264.56 96.0424 264.564 96.0424 264.568C102.383 270.867 110.465 277.171 119.262 279.8C119.262 279.8 112.829 280.257 103.514 276.866C104.952 280.411 105.95 284.182 106.444 288.111C106.679 289.97 106.797 291.865 106.797 293.782C106.797 303.125 103.959 311.589 99.0893 318.774C99.0776 318.774 99.0633 318.771 99.0516 318.771C98.0572 318.687 97.0667 318.592 96.084 318.482C80.8899 315.773 66.4591 310.85 53.1396 304.061C21.5987 285.298 0.432886 250.89 0.766523 211.556C1.05472 177.502 12.0258 156.493 26.9797 140.889C26.1294 145.217 25.6633 149.95 25.6633 154.906C25.6633 175.608 33.7991 192.384 43.8433 192.384C53.8874 192.384 62.0193 175.608 62.0193 154.906C62.0193 154.59 62.0193 154.275 62.0154 153.959C61.7428 131.309 70.7808 109.543 87.2952 94.0795C105.582 76.9608 117.425 53.8139 109.998 10.0058C109.463 6.8447 108.83 3.57686 108.09 0.195801C111.414 3.31918 114.639 6.43086 117.777 9.53081C121.439 13.1565 124.979 16.7627 128.391 20.3533C146.411 39.3084 154.942 65.2377 152.396 91.2958C152.343 91.8242 152.305 92.3682 152.278 92.9317C151.841 102.856 158.896 110.921 167.062 110.921C171.797 110.921 176.013 108.209 178.719 103.994C179.254 103.161 179.729 102.271 180.138 101.327C180.499 103.05 180.742 104.827 181.018 106.459C186.711 139.759 176.932 156.984 162.588 168.61L162.591 168.609Z" fill="url(#paint1_linear_53_129)"/>
<path d="M240.164 246.829C222.971 308.268 152.77 318.163 152.041 318.262C150.542 316.074 149.237 313.803 148.144 311.437C148.14 311.425 148.136 311.418 148.129 311.407C145.643 306.013 144.255 300.12 144.255 293.6C144.255 291.747 144.369 289.925 144.585 288.13C145.066 284.14 146.072 280.309 147.525 276.71C137.982 280.271 131.352 279.8 131.352 279.8C151.649 273.737 168.179 248.074 168.179 248.074C168.179 248.074 168.191 248.074 168.213 248.078C170.36 244.677 172.278 241.121 173.947 237.427C166.279 235.176 159.459 230.933 154.094 225.293C154.086 225.281 154.078 225.273 154.07 225.266C152.269 226.072 150.295 226.518 148.227 226.518C143.856 226.518 139.906 224.528 137.09 221.329C137.094 221.222 137.098 221.111 137.098 221.006C139.496 217.864 142.907 215.691 146.779 215.087L146.802 215.113C143.978 209.723 142.214 203.682 141.793 197.276C141.79 197.254 141.79 197.231 141.79 197.203C146.062 186.157 153.147 176.262 162.592 168.613C176.936 156.987 186.715 139.763 181.022 106.461C180.746 104.829 180.503 103.053 180.142 101.33V101.318C180.943 102.109 181.732 102.901 182.518 103.688C185.906 107.1 190.297 111.787 193.351 115.153C194.016 115.883 194.646 116.637 195.245 117.405C200.737 124.447 203.253 134.245 203.253 142.832C203.253 150.177 201.204 157.553 197.029 164.062C193.367 170.425 192.794 177.523 194.965 182.907C196.115 185.756 198.031 188.126 200.664 189.649C204.762 192.022 209.76 191.862 214.374 189.69C215.247 189.283 216.105 188.8 216.939 188.252C219.895 186.304 222.571 183.509 224.586 180.009C227.329 175.239 228.339 170.053 227.755 165.489C253.103 203.214 241.761 239.067 240.167 246.831L240.164 246.829Z" fill="url(#paint2_linear_53_129)"/>
<path d="M138.612 262.17C135.541 261.869 132.259 261.709 128.852 261.709C124.029 261.709 119.461 262.029 115.38 262.603C114.337 262.748 113.328 262.911 112.352 263.09C113.236 262.055 114.238 261.123 115.341 260.313C118.286 258.152 121.94 256.87 125.906 256.87C130.9 256.87 135.408 258.902 138.61 262.17H138.612Z" fill="#DF3160"/>
<path d="M138.702 262.257C135.47 266.118 130.563 268.579 125.061 268.579C121.517 268.579 118.22 267.56 115.457 265.802C114.289 265.06 113.218 264.182 112.262 263.196C112.292 263.163 112.323 263.123 112.353 263.09C113.328 262.911 114.338 262.747 115.382 262.603C119.461 262.029 124.03 261.709 128.853 261.709C132.261 261.709 135.543 261.869 138.613 262.17C138.643 262.196 138.674 262.227 138.704 262.257H138.702Z" fill="#FF8B76"/>
<defs>
<linearGradient id="paint0_linear_53_129" x1="137.034" y1="221.098" x2="137.112" y2="221.192" gradientUnits="userSpaceOnUse">
<stop stop-color="#FFB77B"/>
<stop offset="0.5" stop-color="#FF8B76"/>
<stop offset="1" stop-color="#DF3160"/>
</linearGradient>
<linearGradient id="paint1_linear_53_129" x1="38.9672" y1="114.264" x2="134.131" y2="204.618" gradientUnits="userSpaceOnUse">
<stop stop-color="#FFB77B"/>
<stop offset="0.5" stop-color="#FF8B76"/>
<stop offset="1" stop-color="#DF3160"/>
</linearGradient>
<linearGradient id="paint2_linear_53_129" x1="225.915" y1="119.66" x2="161.157" y2="308.842" gradientUnits="userSpaceOnUse">
<stop stop-color="#FFB77B"/>
<stop offset="0.5" stop-color="#FF8B76"/>
<stop offset="1" stop-color="#DF3160"/>
</linearGradient>
</defs>
</svg>
