<svg width="24" height="22" viewBox="0 0 24 22" fill="none" xmlns="http://www.w3.org/2000/svg">
<path id="Share" d="M23.6487 9.95145L14.0485 0.351348C13.8807 0.183575 13.6669 0.069326 13.4342 0.0230444C13.2014 -0.0232371 12.9602 0.000526747 12.741 0.0913318C12.5217 0.182137 12.3343 0.335906 12.2024 0.5332C12.0706 0.730494 12.0002 0.962454 12.0001 1.19976V5.4538C8.72204 5.75716 5.67513 7.27285 3.45567 9.70428C1.2362 12.1357 0.00392612 15.3079 0 18.5999V20.4C0.000189429 20.6491 0.0778925 20.8919 0.222331 21.0949C0.36677 21.2978 0.570785 21.4508 0.806079 21.5326C1.04137 21.6143 1.29628 21.6209 1.53545 21.5512C1.77462 21.4816 1.98619 21.3393 2.14082 21.144C3.31647 19.7459 4.75896 18.5961 6.384 17.7619C8.00904 16.9276 9.78405 16.4256 11.6053 16.2851C11.6653 16.2779 11.8153 16.2659 12.0001 16.2539V20.4C12.0002 20.6373 12.0706 20.8692 12.2024 21.0665C12.3343 21.2638 12.5217 21.4176 12.741 21.5084C12.9602 21.5992 13.2014 21.623 13.4342 21.5767C13.6669 21.5304 13.8807 21.4161 14.0485 21.2484L23.6487 11.6483C23.8736 11.4232 24 11.1181 24 10.7999C24 10.4817 23.8736 10.1765 23.6487 9.95145ZM14.4002 17.5031V14.9999C14.4002 14.6816 14.2737 14.3764 14.0487 14.1514C13.8236 13.9263 13.5184 13.7999 13.2001 13.7999C12.8941 13.7999 11.6449 13.8599 11.3257 13.9019C8.09152 14.1999 5.01296 15.4286 2.46243 17.4395C2.75192 14.7928 4.00749 12.3459 5.98873 10.5672C7.96997 8.78861 10.5376 7.80324 13.2001 7.79983C13.5184 7.79983 13.8236 7.6734 14.0487 7.44835C14.2737 7.22331 14.4002 6.91808 14.4002 6.59981V4.09659L21.1034 10.7999L14.4002 17.5031Z" fill="#FF8B76"/>
</svg>
