<svg width="27" height="23" viewBox="0 0 27 23" fill="none" xmlns="http://www.w3.org/2000/svg">
<path fill-rule="evenodd" clip-rule="evenodd" d="M0 1.91667C0 1.40834 0.203188 0.920824 0.564865 0.561379C0.926543 0.201934 1.41708 0 1.92857 0H25.0714C25.5829 0 26.0735 0.201934 26.4351 0.561379C26.7968 0.920824 27 1.40834 27 1.91667C27 2.425 26.7968 2.91251 26.4351 3.27195C26.0735 3.6314 25.5829 3.83333 25.0714 3.83333H1.92857C1.41708 3.83333 0.926543 3.6314 0.564865 3.27195C0.203188 2.91251 0 2.425 0 1.91667ZM0 11.5C0 10.9917 0.203188 10.5042 0.564865 10.1447C0.926543 9.78527 1.41708 9.58333 1.92857 9.58333H25.0714C25.5829 9.58333 26.0735 9.78527 26.4351 10.1447C26.7968 10.5042 27 10.9917 27 11.5C27 12.0083 26.7968 12.4958 26.4351 12.8553C26.0735 13.2147 25.5829 13.4167 25.0714 13.4167H1.92857C1.41708 13.4167 0.926543 13.2147 0.564865 12.8553C0.203188 12.4958 0 12.0083 0 11.5ZM0 21.0833C0 20.575 0.203188 20.0875 0.564865 19.728C0.926543 19.3686 1.41708 19.1667 1.92857 19.1667H25.0714C25.5829 19.1667 26.0735 19.3686 26.4351 19.728C26.7968 20.0875 27 20.575 27 21.0833C27 21.5917 26.7968 22.0792 26.4351 22.4386C26.0735 22.7981 25.5829 23 25.0714 23H1.92857C1.41708 23 0.926543 22.7981 0.564865 22.4386C0.203188 22.0792 0 21.5917 0 21.0833Z" fill="#FF8B76"/>
</svg>
