<svg width="28" height="30" viewBox="0 0 28 30" fill="none" xmlns="http://www.w3.org/2000/svg">
<path d="M25.9722 9.0251L16.8056 1.14453C15.9653 0.407478 14.8774 0 13.75 0C12.6227 0 11.5348 0.407478 10.6945 1.14453L1.52791 9.0251C1.04264 9.4507 0.655404 9.9728 0.391974 10.5566C0.128544 11.1405 -0.00503026 11.7726 0.000144823 12.411V25.5054C0.000144823 26.6974 0.483027 27.8407 1.34256 28.6836C2.2021 29.5265 3.36788 30 4.58345 30H22.9166C24.1322 30 25.298 29.5265 26.1575 28.6836C27.0171 27.8407 27.5 26.6974 27.5 25.5054V12.3961C27.503 11.7602 27.3683 11.1309 27.105 10.5498C26.8416 9.9687 26.4555 9.44903 25.9722 9.0251ZM16.8056 27.0036H10.6945V19.5125C10.6945 19.1152 10.8555 18.7341 11.142 18.4532C11.4285 18.1722 11.8171 18.0143 12.2223 18.0143H15.2778C15.683 18.0143 16.0716 18.1722 16.3581 18.4532C16.6446 18.7341 16.8056 19.1152 16.8056 19.5125V27.0036ZM24.4444 25.5054C24.4444 25.9027 24.2835 26.2838 23.9969 26.5648C23.7104 26.8457 23.3218 27.0036 22.9166 27.0036H19.8611V19.5125C19.8611 18.3205 19.3782 17.1773 18.5187 16.3344C17.6592 15.4915 16.4934 15.0179 15.2778 15.0179H12.2223C11.0067 15.0179 9.84093 15.4915 8.9814 16.3344C8.12186 17.1773 7.63898 18.3205 7.63898 19.5125V27.0036H4.58345C4.17826 27.0036 3.78966 26.8457 3.50315 26.5648C3.21664 26.2838 3.05568 25.9027 3.05568 25.5054V12.3961C3.05595 12.1833 3.10242 11.9731 3.19198 11.7794C3.28155 11.5856 3.41215 11.4128 3.57512 11.2724L12.7417 3.40682C13.0205 3.16663 13.3789 3.03417 13.75 3.03417C14.1212 3.03417 14.4796 3.16663 14.7584 3.40682L23.925 11.2724C24.0879 11.4128 24.2185 11.5856 24.3081 11.7794C24.3977 11.9731 24.4441 12.1833 24.4444 12.3961V25.5054Z" fill="#FF8B76"/>
</svg>
