<svg
  xmlns="http://www.w3.org/2000/svg"
  width="23"
  height="25"
  viewBox="0 0 23 25"
  fill="none"
>
  <path
    fill-rule="evenodd"
    clip-rule="evenodd"
    d="M11.5 7.90881C10.3763 7.90881 9.29864 8.3552 8.50408 9.14977C7.70951 9.94433 7.26312 11.022 7.26312 12.1457C7.26312 13.2694 7.70951 14.347 8.50408 15.1416C9.29864 15.9362 10.3763 16.3826 11.5 16.3826C12.6237 16.3826 13.7014 15.9362 14.4959 15.1416C15.2905 14.347 15.7369 13.2694 15.7369 12.1457C15.7369 11.022 15.2905 9.94433 14.4959 9.14977C13.7014 8.3552 12.6237 7.90881 11.5 7.90881ZM8.95787 12.1457C8.95787 11.4715 9.2257 10.8249 9.70245 10.3481C10.1792 9.8714 10.8258 9.60356 11.5 9.60356C12.1742 9.60356 12.8208 9.8714 13.2976 10.3481C13.7743 10.8249 14.0421 11.4715 14.0421 12.1457C14.0421 12.8199 13.7743 13.4665 13.2976 13.9432C12.8208 14.42 12.1742 14.6878 11.5 14.6878C10.8258 14.6878 10.1792 14.42 9.70245 13.9432C9.2257 13.4665 8.95787 12.8199 8.95787 12.1457Z"
    fill="#3C0F6D"
  />
  <path
    fill-rule="evenodd"
    clip-rule="evenodd"
    d="M11.4718 0C10.969 0 10.5498 -2.10448e-08 10.2063 0.0225967C9.85526 0.0372164 9.50901 0.10975 9.18158 0.237265C8.8045 0.393283 8.46184 0.622056 8.17319 0.910519C7.88453 1.19898 7.65553 1.54148 7.49926 1.91846C7.33543 2.3139 7.29137 2.73194 7.27329 3.18613C7.27148 3.35224 7.22751 3.51517 7.1455 3.65963C7.06348 3.80409 6.94612 3.92535 6.80441 4.01204C6.65853 4.0917 6.49479 4.13297 6.32858 4.13198C6.16237 4.13099 5.99914 4.08778 5.85422 4.00639C5.452 3.79398 5.06785 3.62338 4.64304 3.56689C4.23849 3.51367 3.82743 3.54066 3.43332 3.64632C3.03921 3.75197 2.66976 3.93421 2.34608 4.18265C2.07241 4.40283 1.83689 4.6666 1.64898 4.96336C1.4569 5.25034 1.24676 5.61302 0.995933 6.048L0.967687 6.09771C0.715734 6.5327 0.506714 6.89538 0.355317 7.20495C0.19714 7.52808 0.0728582 7.8467 0.0276648 8.19921C-0.080121 9.01607 0.140964 9.84229 0.642295 10.4962C0.903286 10.8362 1.24337 11.0837 1.62751 11.3255C1.77073 11.4101 1.89005 11.5298 1.97425 11.6733C2.05845 11.8168 2.10476 11.9794 2.10882 12.1457C2.10476 12.312 2.05845 12.4746 1.97425 12.6181C1.89005 12.7616 1.77073 12.8813 1.62751 12.966C1.24337 13.2078 0.904416 13.4552 0.642295 13.7953C0.393863 14.119 0.211618 14.4884 0.105966 14.8825C0.000313458 15.2766 -0.0266771 15.6877 0.0265351 16.0922C0.0728583 16.4447 0.19601 16.7633 0.354187 17.0865C0.506715 17.3961 0.715734 17.7587 0.967687 18.1937L0.995933 18.2434C1.24676 18.6784 1.4569 19.0411 1.64898 19.3281C1.84896 19.6252 2.06363 19.893 2.34608 20.1077C2.66968 20.3563 3.03908 20.5387 3.4332 20.6446C3.82731 20.7504 4.23842 20.7776 4.64304 20.7245C5.06785 20.6681 5.452 20.4986 5.85422 20.285C5.99897 20.2038 6.16201 20.1606 6.32802 20.1596C6.49403 20.1586 6.65757 20.1998 6.80328 20.2794C6.94577 20.3654 7.06388 20.4865 7.14635 20.631C7.22882 20.7756 7.27291 20.9389 7.27442 21.1053C7.29137 21.5595 7.33543 21.9775 7.50039 22.373C7.65641 22.7501 7.88518 23.0927 8.17364 23.3814C8.4621 23.67 8.8046 23.899 9.18158 24.0553C9.50923 24.1909 9.84818 24.244 10.2063 24.2677C10.5498 24.2914 10.969 24.2914 11.4718 24.2914H11.5282C12.031 24.2914 12.4502 24.2914 12.7937 24.2688C13.1529 24.244 13.4908 24.1909 13.8184 24.0542C14.1955 23.8981 14.5382 23.6694 14.8268 23.3809C15.1155 23.0925 15.3445 22.75 15.5007 22.373C15.6646 21.9775 15.7086 21.5595 15.7267 21.1053C15.7283 20.939 15.7722 20.7758 15.8542 20.6312C15.9363 20.4865 16.0537 20.365 16.1956 20.2783C16.3416 20.1988 16.5054 20.1577 16.6716 20.1589C16.8378 20.1601 17.001 20.2035 17.1458 20.285C17.548 20.4974 17.9321 20.6681 18.357 20.7234C19.1738 20.8312 20 20.6101 20.6539 20.1088C20.9364 19.8919 21.151 19.6252 21.351 19.3281C21.5431 19.0411 21.7532 18.6784 22.0041 18.2434L22.0323 18.1937C22.2843 17.7587 22.4933 17.3961 22.6447 17.0865C22.8029 16.7633 22.9271 16.4436 22.9723 16.0922C23.0801 15.2754 22.859 14.4491 22.3577 13.7953C22.0967 13.4552 21.7566 13.2078 21.3725 12.966C21.2293 12.8813 21.11 12.7616 21.0258 12.6181C20.9416 12.4746 20.8952 12.312 20.8912 12.1457C20.8912 11.8316 21.0629 11.5198 21.3725 11.3255C21.7566 11.0837 22.0956 10.8362 22.3577 10.4962C22.6061 10.1725 22.7884 9.80304 22.894 9.40892C22.9997 9.01481 23.0267 8.60375 22.9735 8.19921C22.9197 7.85202 22.809 7.51609 22.6458 7.20495C22.4529 6.82956 22.2483 6.4603 22.0323 6.09771L22.0041 6.048C21.7977 5.67978 21.5799 5.31805 21.351 4.96336C21.1631 4.66691 20.9276 4.40351 20.6539 4.18378C20.3303 3.93515 19.9609 3.7527 19.5668 3.64685C19.1727 3.541 18.7616 3.51383 18.357 3.56689C17.9321 3.62338 17.548 3.79285 17.1458 4.00639C17.001 4.08758 16.838 4.13068 16.672 4.13167C16.506 4.13266 16.3425 4.0915 16.1967 4.01204C16.0546 3.92563 15.9368 3.80449 15.8544 3.66C15.7719 3.51552 15.7276 3.35245 15.7256 3.18613C15.7086 2.73194 15.6646 2.3139 15.4996 1.91846C15.3436 1.54138 15.1148 1.19872 14.8264 0.910066C14.5379 0.62141 14.1954 0.392407 13.8184 0.236135C13.4908 0.100555 13.1518 0.0474531 12.7937 0.0237265C12.4502 3.15672e-08 12.031 0 11.5282 0H11.4718ZM9.83011 1.80209C9.9171 1.76593 10.0493 1.73317 10.3216 1.71396C10.6007 1.69475 10.9622 1.69475 11.5 1.69475C12.0378 1.69475 12.3993 1.69475 12.6784 1.71396C12.9507 1.73317 13.0829 1.76593 13.1699 1.80209C13.5168 1.94557 13.7913 2.22012 13.9348 2.56698C13.98 2.67545 14.0173 2.84605 14.032 3.2494C14.0659 4.14423 14.528 5.00629 15.3482 5.47969C16.1685 5.95423 17.1458 5.92259 17.9378 5.50455C18.2948 5.31587 18.4609 5.26277 18.5784 5.24808C18.9496 5.19903 19.3251 5.29941 19.6224 5.52715C19.6969 5.58477 19.7919 5.68307 19.9444 5.90903C20.1014 6.14178 20.2822 6.45474 20.5511 6.92023C20.82 7.38573 20.9996 7.69982 21.1228 7.95064C21.2437 8.19582 21.281 8.32688 21.2923 8.42065C21.3413 8.79188 21.2409 9.16739 21.0132 9.46462C20.9409 9.5584 20.8121 9.6759 20.4709 9.89057C19.7116 10.3674 19.1964 11.1989 19.1964 12.1457C19.1964 13.0925 19.7116 13.9241 20.4709 14.4009C20.8121 14.6155 20.9409 14.733 21.0132 14.8268C21.2414 15.124 21.3409 15.4991 21.2923 15.8708C21.281 15.9646 21.2426 16.0967 21.1228 16.3408C20.9996 16.5927 20.82 16.9057 20.5511 17.3712C20.2822 17.8367 20.1003 18.1497 19.9444 18.3824C19.7919 18.6084 19.6969 18.7067 19.6224 18.7643C19.3251 18.992 18.9496 19.0924 18.5784 19.0434C18.4609 19.0287 18.296 18.9756 17.9378 18.7869C17.1469 18.3688 16.1685 18.3372 15.3482 18.8106C14.528 19.2851 14.0659 20.1472 14.032 21.042C14.0173 21.4454 13.98 21.616 13.9348 21.7244C13.8638 21.896 13.7597 22.0518 13.6285 22.183C13.4972 22.3143 13.3414 22.4184 13.1699 22.4893C13.0829 22.5255 12.9507 22.5583 12.6784 22.5775C12.3993 22.5967 12.0378 22.5967 11.5 22.5967C10.9622 22.5967 10.6007 22.5967 10.3216 22.5775C10.0493 22.5583 9.9171 22.5255 9.83011 22.4893C9.6586 22.4184 9.50277 22.3143 9.37152 22.183C9.24027 22.0518 9.13619 21.896 9.06521 21.7244C9.02001 21.616 8.98273 21.4454 8.96804 21.042C8.93415 20.1472 8.47204 19.2851 7.65178 18.8117C6.83153 18.3372 5.85422 18.3688 5.06221 18.7869C4.70518 18.9756 4.53909 19.0287 4.42159 19.0434C4.05037 19.0924 3.67486 18.992 3.37762 18.7643C3.30305 18.7067 3.20815 18.6084 3.05562 18.3824C2.84311 18.0516 2.64078 17.7144 2.4489 17.3712C2.18 16.9057 2.00036 16.5916 1.8772 16.3408C1.75631 16.0956 1.71903 15.9646 1.70773 15.8708C1.65868 15.4996 1.75906 15.124 1.9868 14.8268C2.05911 14.733 2.18791 14.6155 2.52912 14.4009C3.28837 13.9241 3.80357 13.0925 3.80357 12.1457C3.80357 11.1989 3.28837 10.3674 2.52912 9.89057C2.18791 9.6759 2.05911 9.5584 1.9868 9.46462C1.75906 9.16739 1.65868 8.79188 1.70773 8.42065C1.71903 8.32688 1.75744 8.19469 1.8772 7.95064C2.00036 7.69869 2.18 7.38573 2.4489 6.92023C2.7178 6.45474 2.8997 6.14178 3.05562 5.90903C3.20815 5.68307 3.30305 5.58477 3.37762 5.52715C3.67486 5.29941 4.05037 5.19903 4.42159 5.24808C4.53909 5.26277 4.70405 5.31587 5.06221 5.50455C5.85309 5.92259 6.83153 5.95423 7.65178 5.47969C8.47204 5.00629 8.93415 4.14423 8.96804 3.2494C8.98273 2.84605 9.02001 2.67545 9.06521 2.56698C9.2087 2.22012 9.48325 1.94557 9.83011 1.80209Z"
    fill="#3C0F6D"
  />
</svg>
