<svg xmlns="http://www.w3.org/2000/svg" width="23" height="23" viewBox="0 0 23 23" fill="none">
<path fill-rule="evenodd" clip-rule="evenodd" d="M14.95 13.8C16.475 13.8 17.9375 14.4058 19.0159 15.4841C20.0942 16.5625 20.7 18.025 20.7 19.55V21.85C20.7 22.155 20.5788 22.4475 20.3632 22.6632C20.1475 22.8788 19.855 23 19.55 23C19.245 23 18.9525 22.8788 18.7368 22.6632C18.5212 22.4475 18.4 22.155 18.4 21.85V19.55C18.4 18.635 18.0365 17.7575 17.3895 17.1105C16.7425 16.4635 15.865 16.1 14.95 16.1H5.75C4.835 16.1 3.95748 16.4635 3.31048 17.1105C2.66348 17.7575 2.3 18.635 2.3 19.55V21.85C2.3 22.155 2.17884 22.4475 1.96317 22.6632C1.74751 22.8788 1.455 23 1.15 23C0.845001 23 0.552494 22.8788 0.336827 22.6632C0.12116 22.4475 0 22.155 0 21.85V19.55C0 18.025 0.605802 16.5625 1.68414 15.4841C2.76247 14.4058 4.22501 13.8 5.75 13.8H14.95ZM10.35 0C11.875 0 13.3375 0.605802 14.4159 1.68414C15.4942 2.76247 16.1 4.22501 16.1 5.75C16.1 7.27499 15.4942 8.73753 14.4159 9.81586C13.3375 10.8942 11.875 11.5 10.35 11.5C8.82501 11.5 7.36247 10.8942 6.28414 9.81586C5.2058 8.73753 4.6 7.27499 4.6 5.75C4.6 4.22501 5.2058 2.76247 6.28414 1.68414C7.36247 0.605802 8.82501 0 10.35 0ZM10.35 2.3C9.89694 2.3 9.44832 2.38924 9.02974 2.56262C8.61117 2.73599 8.23084 2.99012 7.91048 3.31048C7.59012 3.63084 7.33599 4.01117 7.16262 4.42974C6.98924 4.84832 6.9 5.29694 6.9 5.75C6.9 6.20306 6.98924 6.65168 7.16262 7.07026C7.33599 7.48883 7.59012 7.86916 7.91048 8.18952C8.23084 8.50988 8.61117 8.76401 9.02974 8.93738C9.44832 9.11076 9.89694 9.2 10.35 9.2C11.265 9.2 12.1425 8.83652 12.7895 8.18952C13.4365 7.54252 13.8 6.665 13.8 5.75C13.8 4.835 13.4365 3.95748 12.7895 3.31048C12.1425 2.66348 11.265 2.3 10.35 2.3Z" fill="#DF3160"/>
<path fill-rule="evenodd" clip-rule="evenodd" d="M21.9893 12.7895C21.5402 13.2386 20.8121 13.2386 20.363 12.7895L17.1103 9.5368C16.6612 9.08769 16.6612 8.35956 17.1103 7.91045C17.5594 7.46135 18.2875 7.46135 18.7366 7.91045L21.9893 11.1631C22.4384 11.6122 22.4384 12.3404 21.9893 12.7895Z" fill="#DF3160"/>
<path fill-rule="evenodd" clip-rule="evenodd" d="M21.9895 7.91022C22.4386 8.35932 22.4386 9.08746 21.9895 9.53656L18.7368 12.7893C18.2877 13.2384 17.5596 13.2384 17.1105 12.7893C16.6614 12.3401 16.6614 11.612 17.1105 11.1629L20.3632 7.91022C20.8123 7.46111 21.5404 7.46111 21.9895 7.91022Z" fill="#DF3160"/>
</svg>