<svg xmlns="http://www.w3.org/2000/svg" width="31" height="30" viewBox="0 0 31 30" fill="none">
<path d="M20.5166 9.69671C19.9332 9.11334 18.9786 9.11334 18.3952 9.69671L15.2133 12.8787L12.0313 9.69671C11.4479 9.11334 10.4933 9.11334 9.90996 9.69671C9.32659 10.2801 9.32659 11.2347 9.90996 11.818L13.0919 15L9.90996 18.182C9.32659 18.7654 9.32659 19.7199 9.90996 20.3033C10.4933 20.8867 11.4479 20.8867 12.0313 20.3033L15.2133 17.1213L18.3952 20.3033C18.9786 20.8867 19.9332 20.8867 20.5166 20.3033C21.0999 19.7199 21.0999 18.7653 20.5166 18.182L17.3346 15L20.5166 11.818C21.0999 11.2347 21.0999 10.2801 20.5166 9.69671ZM25.8199 4.39341C19.965 -1.46144 10.4615 -1.46144 4.60666 4.39341C-1.24819 10.2482 -1.24819 19.7518 4.60666 25.6066C10.4615 31.4615 19.965 31.4615 25.8199 25.6066C31.6747 19.7518 31.6747 10.2482 25.8199 4.39341ZM6.72798 23.4853C2.05047 18.8078 2.05046 11.1922 6.72798 6.51473C11.4055 1.83721 19.021 1.83721 23.6985 6.51473C28.376 11.1922 28.376 18.8078 23.6985 23.4853C19.021 28.1628 11.4055 28.1628 6.72798 23.4853Z" fill="#FF8B76"/>
</svg>