<svg width="23" height="21" viewBox="0 0 23 21" fill="none" xmlns="http://www.w3.org/2000/svg">
<g id="Mask group">
<mask id="mask0_121_3209" style="mask-type:alpha" maskUnits="userSpaceOnUse" x="0" y="0" width="23" height="21">
<path id="Vector" d="M11.5 21L9.8325 19.4894C3.91 14.145 0 10.6087 0 6.29428C0 2.75804 2.783 0 6.325 0C8.326 0 10.2465 0.926975 11.5 2.38038C12.7535 0.926975 14.674 0 16.675 0C20.217 0 23 2.75804 23 6.29428C23 10.6087 19.09 14.145 13.1675 19.4894L11.5 21Z" fill="#D9D9D9"/>
</mask>
<g mask="url(#mask0_121_3209)">
<path id="Vector 2" d="M9.5 -7.31211C7.1 -9.31211 1.5 -6.47878 -1 -4.81211V22.5H23V-4.81211C22.5 -3.64545 20.6 -1.21213 17 -0.812134C12.5 -0.312134 12.5 -4.81211 9.5 -7.31211Z" fill="#DF3160"/>
</g>
</g>
</svg>
