<svg width="30" height="26" viewBox="0 0 30 26" fill="none" xmlns="http://www.w3.org/2000/svg">
<path d="M6.06667 0C4.9174 0 3.81519 0.456546 3.00254 1.2692C2.18988 2.08186 1.73333 3.18406 1.73333 4.33333V9.2508C2.27067 8.99427 2.8548 8.81573 3.46667 8.72733V4.33333C3.46667 3.64377 3.74059 2.98245 4.22819 2.49486C4.71578 2.00726 5.3771 1.73333 6.06667 1.73333H18.2C18.8896 1.73333 19.5509 2.00726 20.0385 2.49486C20.5261 2.98245 20.8 3.64377 20.8 4.33333V16.4667C20.8 17.1562 20.5261 17.8176 20.0385 18.3051C19.5509 18.7927 18.8896 19.0667 18.2 19.0667H17.3333V20.8H18.2C19.3493 20.8 20.4515 20.3435 21.2641 19.5308C22.0768 18.7181 22.5333 17.6159 22.5333 16.4667V14.7333L26.6933 17.8533C26.9509 18.0465 27.2571 18.1641 27.5777 18.193C27.8983 18.2219 28.2206 18.161 28.5085 18.017C28.7964 17.873 29.0386 17.6518 29.2078 17.3779C29.377 17.1041 29.4667 16.7886 29.4667 16.4667V4.33333C29.4667 4.01143 29.377 3.69589 29.2078 3.42207C29.0386 3.14824 28.7964 2.92695 28.5085 2.78299C28.2206 2.63903 27.8983 2.5781 27.5777 2.607C27.2571 2.63591 26.9509 2.75353 26.6933 2.94667L22.5333 6.06667V4.33333C22.5333 3.18406 22.0768 2.08186 21.2641 1.2692C20.4515 0.456546 19.3493 0 18.2 0H6.06667ZM22.5333 8.23333L27.7333 4.33333V16.4667L22.5333 12.5667V8.23333ZM0 14.7333C0 13.5841 0.456546 12.4819 1.2692 11.6692C2.08186 10.8565 3.18406 10.4 4.33333 10.4H11.2667C12.4159 10.4 13.5181 10.8565 14.3308 11.6692C15.1435 12.4819 15.6 13.5841 15.6 14.7333V21.6667C15.6 22.8159 15.1435 23.9181 14.3308 24.7308C13.5181 25.5435 12.4159 26 11.2667 26H4.33333C3.18406 26 2.08186 25.5435 1.2692 24.7308C0.456546 23.9181 0 22.8159 0 21.6667V14.7333ZM6.968 14.7923C6.8556 14.7151 6.725 14.6686 6.58912 14.6573C6.45323 14.6461 6.31676 14.6705 6.1932 14.7281C6.09173 14.7723 5.99988 14.8359 5.9228 14.9153C5.76133 15.0808 5.6711 15.3029 5.67147 15.5341V20.8641C5.67031 20.979 5.69193 21.093 5.73506 21.1995C5.7782 21.306 5.84201 21.403 5.9228 21.4847C6.00246 21.5635 6.09511 21.628 6.19667 21.6753C6.37253 21.7559 6.57207 21.7683 6.75653 21.71C6.83645 21.6837 6.9123 21.6464 6.98187 21.5991L10.9616 18.8829C11.0826 18.8031 11.1802 18.6924 11.2441 18.5623C11.31 18.4311 11.3438 18.2863 11.3429 18.1396C11.342 17.9929 11.3064 17.8484 11.2389 17.7181C11.1707 17.5896 11.0704 17.481 10.9477 17.4027L6.968 14.7923Z" fill="#FF8B76"/>
</svg>
