<svg xmlns="http://www.w3.org/2000/svg" width="27" height="24" viewBox="0 0 27 24" fill="none">
<path d="M14.3795 0.872845V2.90948H16.6983C17.1104 2.90948 17.5131 3.03285 17.8536 3.26211L19.846 4.60513C19.8941 4.63772 19.9516 4.65517 20.0103 4.65517H24.8264C25.0599 4.65517 25.2839 4.74713 25.449 4.91082C25.6141 5.07451 25.7069 5.29653 25.7069 5.52802C25.7069 5.75951 25.6141 5.98152 25.449 6.14521C25.2839 6.3089 25.0599 6.40086 24.8264 6.40086H22.9737L26.9256 15.3388C27.0049 15.5175 27.0213 15.7174 26.9724 15.9064C26.9234 16.0955 26.8119 16.2628 26.6556 16.3816C26.5382 16.4677 26.4172 16.548 26.2916 16.6213C25.9938 16.7975 25.6839 16.9526 25.3641 17.0856C24.3021 17.5259 23.162 17.751 22.0109 17.7478C20.8603 17.7514 19.7206 17.5267 18.659 17.0868C18.339 16.9537 18.029 16.7982 17.7314 16.6213C17.6069 16.5498 17.4865 16.4713 17.371 16.3862L17.3651 16.3816C17.2088 16.2628 17.0973 16.0955 17.0483 15.9064C16.9994 15.7174 17.0158 15.5175 17.0951 15.3388L21.0494 6.40086H20.0091C19.597 6.40086 19.1943 6.2775 18.8539 6.04823L16.8615 4.70522C16.8131 4.67238 16.7557 4.65493 16.6971 4.65517H14.3795V21.5302H19.6475C19.8811 21.5302 20.105 21.6221 20.2702 21.7858C20.4353 21.9495 20.5281 22.1715 20.5281 22.403C20.5281 22.6345 20.4353 22.8565 20.2702 23.0202C20.105 23.1839 19.8811 23.2759 19.6475 23.2759H7.35032C7.11678 23.2759 6.89281 23.1839 6.72767 23.0202C6.56254 22.8565 6.46977 22.6345 6.46977 22.403C6.46977 22.1715 6.56254 21.9495 6.72767 21.7858C6.89281 21.6221 7.11678 21.5302 7.35032 21.5302H12.6184V4.65517H10.2996C10.241 4.65514 10.1837 4.67258 10.1352 4.70522L8.14399 6.04823C7.80351 6.2775 7.4008 6.40086 6.98871 6.40086H5.94848L9.90275 15.3388C9.97928 15.5124 9.99674 15.706 9.95247 15.8904C9.9082 16.0747 9.80462 16.2398 9.65737 16.3606C9.56344 16.4363 9.46952 16.5072 9.29341 16.6201C8.99648 16.8107 8.68567 16.9792 8.36354 17.1241C7.30314 17.6016 6.15161 17.8476 4.98692 17.8456C3.82218 17.848 2.67056 17.6019 1.61029 17.1241C1.28816 16.9792 0.97735 16.8107 0.680426 16.6201C0.554867 16.541 0.433757 16.4551 0.317638 16.3629C0.171558 16.2407 0.0688046 16.0754 0.0244353 15.8911C-0.0199339 15.7068 -0.0035859 15.5132 0.0710837 15.3388L4.02418 6.40086H2.17267C1.93913 6.40086 1.71516 6.3089 1.55002 6.14521C1.38489 5.98152 1.29212 5.75951 1.29212 5.52802C1.29212 5.29653 1.38489 5.07451 1.55002 4.91082C1.71516 4.74713 1.93913 4.65517 2.17267 4.65517H6.98871C7.04741 4.65517 7.10494 4.63772 7.15425 4.60513L9.1443 3.26211C9.48478 3.03168 9.88866 2.90948 10.3008 2.90948H12.6184V0.872845C12.6184 0.641352 12.7111 0.41934 12.8763 0.25565C13.0414 0.0919601 13.2654 0 13.4989 0C13.7325 0 13.9564 0.0919601 14.1216 0.25565C14.2867 0.41934 14.3795 0.641352 14.3795 0.872845ZM1.98482 15.3597C2.90886 15.8474 3.94009 16.1012 4.98692 16.0988C6.03374 16.1012 7.06497 15.8474 7.98901 15.3597L4.98692 8.57483L1.98482 15.3597ZM19.0206 15.3318C19.1169 15.3784 19.2249 15.4284 19.3435 15.4784C19.9657 15.738 20.8756 16.0022 22.0109 16.0022C23.046 16.005 24.0682 15.7759 25.0013 15.3318L22.0109 8.57366L19.0206 15.3318Z" fill="#3C0F6D"/>
</svg>