<svg width="17" height="25" viewBox="0 0 17 25" fill="none" xmlns="http://www.w3.org/2000/svg">
<path d="M16 6V23.5L8.5 18.5L1 23.5V6C1 4.67392 1.52678 3.40215 2.46447 2.46447C3.40215 1.52678 4.67392 1 6 1H11C12.3261 1 13.5979 1.52678 14.5355 2.46447C15.4732 3.40215 16 4.67392 16 6Z" stroke="#FF8B76" stroke-width="2" stroke-linecap="round" stroke-linejoin="round"/>
<mask id="mask0_121_3267" style="mask-type:alpha" maskUnits="userSpaceOnUse" x="0" y="0" width="17" height="25">
<path d="M16 6V23.5L8.5 18.5L1 23.5V6C1 4.67392 1.52678 3.40215 2.46447 2.46447C3.40215 1.52678 4.67392 1 6 1H11C12.3261 1 13.5979 1.52678 14.5355 2.46447C15.4732 3.40215 16 4.67392 16 6Z" fill="#FF8B76" stroke="#FF8B76" stroke-width="2" stroke-linecap="round" stroke-linejoin="round"/>
</mask>
<g mask="url(#mask0_121_3267)">
<path d="M6.5 -7.21062C4.1 -9.5057 -1.5 -6.25433 -4 -4.34177V27H20V-4.34177C19.5 -3.00298 17.6 -0.210646 14 0.248371C9.5 0.822141 9.5 -4.34177 6.5 -7.21062Z" fill="#FFB77B"/>
</g>
</svg>
