<svg width="16" height="16" viewBox="0 0 16 16" fill="none" xmlns="http://www.w3.org/2000/svg">
<path d="M15.625 3.94945L12.0499 0.375011C11.9311 0.25612 11.79 0.161808 11.6347 0.0974633C11.4794 0.0331182 11.3129 0 11.1448 0C10.9767 0 10.8102 0.0331182 10.6549 0.0974633C10.4996 0.161808 10.3585 0.25612 10.2396 0.375011L0.375192 10.2399C0.25582 10.3584 0.161179 10.4993 0.09677 10.6547C0.032361 10.81 -0.000530731 10.9766 6.47571e-06 11.1447V14.72C6.47571e-06 15.0595 0.134858 15.385 0.374895 15.6251C0.614933 15.8651 0.940493 16 1.27996 16H4.85502C5.02317 16.0005 5.18974 15.9676 5.34507 15.9032C5.50039 15.8388 5.64136 15.7442 5.75979 15.6248L12.4531 8.93191L12.7315 10.0439L9.78763 12.9872C9.66755 13.1071 9.60004 13.2699 9.59997 13.4397C9.59989 13.6094 9.66725 13.7723 9.78723 13.8924C9.90721 14.0125 10.07 14.08 10.2397 14.08C10.4095 14.0801 10.5723 14.0128 10.6924 13.8928L13.8923 10.6927C13.9705 10.6146 14.0272 10.5175 14.0568 10.411C14.0864 10.3044 14.0879 10.192 14.0611 10.0847L13.5091 7.8759L15.625 5.75987C15.7439 5.64101 15.8382 5.49989 15.9025 5.34457C15.9669 5.18925 16 5.02278 16 4.85466C16 4.68654 15.9669 4.52007 15.9025 4.36476C15.8382 4.20944 15.7439 4.06832 15.625 3.94945ZM1.27996 12.4248L3.57507 14.72H1.27996V12.4248ZM5.11981 14.4552L1.54475 10.8799L8.31969 4.10465L11.8948 7.6799L5.11981 14.4552ZM12.7995 6.77509L9.22525 3.19984L11.1452 1.27982L14.7194 4.85506L12.7995 6.77509Z" fill="#3c0f6d"/>
</svg>
