<svg xmlns="http://www.w3.org/2000/svg" width="40" height="40" viewBox="0 0 40 40" fill="none">
  <path d="M22.0912 12.43L37.148 12.3303M22.0912 12.43L19.6482 19.6321C19.6121 19.7279 19.6041 19.8316 19.6252 19.9311C19.6462 20.0305 19.6955 20.1215 19.7671 20.1931C19.8387 20.2647 19.9296 20.3139 20.0291 20.335C20.1285 20.3561 20.2323 20.3481 20.3281 20.3119L37.148 12.3303M22.0912 12.43L19.7434 5.25966C19.7085 5.16434 19.7019 5.06065 19.7243 4.96092C19.7467 4.86119 19.7972 4.7696 19.8697 4.69704C19.9423 4.62449 20.0339 4.57402 20.1336 4.55162C20.2333 4.52923 20.337 4.53586 20.4323 4.57073L37.148 12.3303" stroke="#FF8B76" stroke-width="1.5" stroke-linecap="round" stroke-linejoin="round"/>
</svg>