<svg width="23" height="21" viewBox="0 0 23 21" fill="none" xmlns="http://www.w3.org/2000/svg">
<path id="Vector" d="M10.5039 18.7483L10.5024 18.747C7.52146 16.0569 5.12798 13.8918 3.46806 11.8709C1.81898 9.86314 1 8.12115 1 6.29428C1 3.3161 3.32949 1 6.325 1C8.0255 1 9.67281 1.79293 10.7427 3.03349L11.5 3.91152L12.2573 3.03349C13.3272 1.79293 14.9745 1 16.675 1C19.6705 1 22 3.3161 22 6.29428C22 8.12115 21.181 9.86314 19.5319 11.8709C17.872 13.8918 15.4785 16.0569 12.4976 18.747L12.4961 18.7483L11.5 19.6507L10.5039 18.7483Z" stroke="#FF8B76" stroke-width="2"/>
</svg>
