<svg width="26" height="31" viewBox="0 0 26 31" fill="none" xmlns="http://www.w3.org/2000/svg">
<path d="M16.9974 23.8077V24.8462C16.9974 25.9478 16.5763 27.0044 15.8268 27.7834C15.0773 28.5624 14.0607 29 13.0007 29C11.9408 29 10.9242 28.5624 10.1747 27.7834C9.42521 27.0044 9.00414 25.9478 9.00414 24.8462V23.8077M23.7217 21.6938C22.118 19.6538 20.9858 18.6154 20.9858 12.9915C20.9858 7.84135 18.4555 6.00651 16.3729 5.11538C16.0962 4.99726 15.8358 4.72596 15.7515 4.43065C15.3862 3.13841 14.3621 2 13.0007 2C11.6394 2 10.6146 3.13906 10.2531 4.43195C10.1688 4.7305 9.90837 4.99726 9.63173 5.11538C7.54662 6.00781 5.01876 7.83615 5.01876 12.9915C5.01564 18.6154 3.88348 19.6538 2.27984 21.6938C1.6154 22.5388 2.19741 23.8077 3.35955 23.8077H22.6482C23.8041 23.8077 24.3823 22.5349 23.7217 21.6938Z" stroke="#FF8B76" stroke-width="3" stroke-linecap="round" stroke-linejoin="round"/>
</svg>
