<svg width="30" height="30" viewBox="0 0 30 30" fill="none" xmlns="http://www.w3.org/2000/svg">
<path d="M10.0009 12.4971C10.0009 12.1656 10.1326 11.8476 10.367 11.6132C10.6014 11.3788 10.9193 11.2471 11.2509 11.2471H18.7508C19.0824 11.2471 19.4003 11.3788 19.6347 11.6132C19.8692 11.8476 20.0008 12.1656 20.0008 12.4971C20.0008 12.8286 19.8692 13.1466 19.6347 13.381C19.4003 13.6154 19.0824 13.7471 18.7508 13.7471H11.2509C10.9193 13.7471 10.6014 13.6154 10.367 13.381C10.1326 13.1466 10.0009 12.8286 10.0009 12.4971ZM11.2509 16.2471C10.9193 16.2471 10.6014 16.3788 10.367 16.6132C10.1326 16.8476 10.0009 17.1656 10.0009 17.4971C10.0009 17.8286 10.1326 18.1466 10.367 18.381C10.6014 18.6154 10.9193 18.7471 11.2509 18.7471H16.2508C16.5824 18.7471 16.9003 18.6154 17.1347 18.381C17.3692 18.1466 17.5008 17.8286 17.5008 17.4971C17.5008 17.1656 17.3692 16.8476 17.1347 16.6132C16.9003 16.3788 16.5824 16.2471 16.2508 16.2471H11.2509ZM0.000863164 14.9971C0.00150106 11.6947 1.09193 8.48484 3.10298 5.86542C5.11404 3.246 7.93331 1.36345 11.1235 0.509809C14.3136 -0.343834 17.6963 -0.120852 20.7468 1.14416C23.7973 2.40918 26.345 4.64551 27.9948 7.50626C29.6446 10.367 30.3043 13.6922 29.8714 16.9661C29.4386 20.24 27.9374 23.2795 25.6008 25.6132C23.2642 27.9469 20.2228 29.4443 16.9484 29.873C13.6739 30.3018 10.3495 29.638 7.49086 27.9846L1.64586 29.9346C1.42992 30.0067 1.19838 30.0184 0.976248 29.9686C0.754113 29.9187 0.549811 29.8091 0.385394 29.6517C0.220976 29.4942 0.102687 29.2948 0.0432909 29.075C-0.0161049 28.8553 -0.0143511 28.6234 0.0483633 28.4046L1.82836 22.1771C0.625903 19.9752 -0.00259471 17.5059 0.000863164 14.9971ZM15.0008 2.49711C12.7938 2.49697 10.6261 3.08118 8.71799 4.19037C6.80992 5.29955 5.22953 6.89416 4.13749 8.8121C3.04544 10.73 2.48067 12.9029 2.50058 15.1099C2.5205 17.3168 3.12438 19.4792 4.25086 21.3771C4.33753 21.5237 4.39332 21.6865 4.41482 21.8554C4.43631 22.0244 4.42306 22.1959 4.37586 22.3596L3.10336 26.8096L7.24836 25.4296C7.42439 25.3708 7.6113 25.352 7.79551 25.3745C7.97973 25.397 8.15662 25.4602 8.31336 25.5596C9.95153 26.5963 11.8084 27.2378 13.7372 27.4333C15.666 27.6289 17.6138 27.3731 19.4267 26.6862C21.2396 25.9994 22.8679 24.9002 24.1829 23.4757C25.4978 22.0512 26.4635 20.3403 27.0034 18.4783C27.5433 16.6164 27.6427 14.6544 27.2938 12.7473C26.9449 10.8403 26.1572 9.04062 24.9929 7.49046C23.8287 5.9403 22.3199 4.68219 20.5857 3.81556C18.8515 2.94894 16.9395 2.49756 15.0008 2.49711Z" fill="#3c0f6d"/>
</svg>
