<svg width="29" height="26" viewBox="0 0 29 26" fill="none" xmlns="http://www.w3.org/2000/svg">
<path fill-rule="evenodd" clip-rule="evenodd" d="M8.464 2.98267C8.82 1.236 10.3747 0 12.1547 0H16.512C18.292 0 19.8453 1.236 20.2027 2.98267C20.2421 3.175 20.345 3.34849 20.495 3.47522C20.6449 3.60195 20.8331 3.67455 21.0293 3.68133H21.0733C22.944 3.764 24.3813 3.99333 25.5813 4.78133C26.3373 5.27733 26.988 5.91467 27.4947 6.66C28.1253 7.58533 28.4027 8.64933 28.536 9.93467C28.6667 11.192 28.6667 12.7667 28.6667 14.7613V14.8747C28.6667 16.8693 28.6667 18.4453 28.536 19.7013C28.4027 20.9867 28.1253 22.0507 27.4947 22.9773C26.9864 23.7231 26.3363 24.3615 25.5813 24.856C24.644 25.4707 23.568 25.7427 22.264 25.872C20.9867 26 19.3853 26 17.3507 26H11.316C9.28133 26 7.68 26 6.40267 25.872C5.09867 25.7427 4.02267 25.472 3.08533 24.856C2.33028 24.3611 1.68012 23.7222 1.172 22.976C0.541333 22.0507 0.264 20.9867 0.130667 19.7013C6.95388e-08 18.4453 0 16.8693 0 14.8747V14.7613C0 12.7667 6.95388e-08 11.192 0.130667 9.93467C0.264 8.64933 0.541333 7.58533 1.172 6.66C1.68012 5.91376 2.33028 5.27493 3.08533 4.78C4.28533 3.99333 5.72267 3.764 7.59333 3.68267L7.616 3.68133H7.63733C7.83354 3.67455 8.02177 3.60195 8.17171 3.47522C8.32166 3.34849 8.42461 3.175 8.464 2.98267ZM12.1547 2C11.3013 2 10.5853 2.59067 10.424 3.38133C10.164 4.66133 9.028 5.66933 7.66133 5.68133C5.864 5.76133 4.90133 5.98133 4.18133 6.45333C3.64651 6.8043 3.18579 7.25686 2.82533 7.78533C2.45733 8.32533 2.236 9.01733 2.11867 10.1413C2.00133 11.2827 2 12.7547 2 14.8187C2 16.8827 2 18.3533 2.12 19.4947C2.236 20.6187 2.45733 21.3107 2.82667 21.852C3.184 22.3773 3.644 22.8307 4.18267 23.1827C4.73867 23.548 5.45067 23.768 6.60133 23.8827C7.76667 23.9987 9.268 24 11.3707 24H17.296C19.3973 24 20.8987 24 22.0653 23.8827C23.216 23.768 23.928 23.5493 24.484 23.184C25.0227 22.8307 25.484 22.3773 25.8413 21.8507C26.2093 21.3107 26.4307 20.6187 26.548 19.4947C26.6653 18.3533 26.6667 16.8813 26.6667 14.8187C26.6667 12.7547 26.6667 11.2827 26.5467 10.1413C26.4307 9.01733 26.2093 8.32533 25.84 7.78533C25.4799 7.25615 25.0192 6.80309 24.484 6.452C23.7667 5.98133 22.804 5.76133 21.004 5.68133C19.6387 5.668 18.5027 4.66267 18.2427 3.38133C18.1573 2.98703 17.9385 2.63425 17.6232 2.38259C17.3079 2.13092 16.9154 1.99578 16.512 2H12.1547ZM14.3333 11.3333C13.5377 11.3333 12.7746 11.6494 12.212 12.212C11.6494 12.7746 11.3333 13.5377 11.3333 14.3333C11.3333 15.129 11.6494 15.892 12.212 16.4547C12.7746 17.0173 13.5377 17.3333 14.3333 17.3333C15.129 17.3333 15.892 17.0173 16.4547 16.4547C17.0173 15.892 17.3333 15.129 17.3333 14.3333C17.3333 13.5377 17.0173 12.7746 16.4547 12.212C15.892 11.6494 15.129 11.3333 14.3333 11.3333ZM9.33333 14.3333C9.33333 13.0073 9.86012 11.7355 10.7978 10.7978C11.7355 9.86012 13.0073 9.33333 14.3333 9.33333C15.6594 9.33333 16.9312 9.86012 17.8689 10.7978C18.8065 11.7355 19.3333 13.0073 19.3333 14.3333C19.3333 15.6594 18.8065 16.9312 17.8689 17.8689C16.9312 18.8065 15.6594 19.3333 14.3333 19.3333C13.0073 19.3333 11.7355 18.8065 10.7978 17.8689C9.86012 16.9312 9.33333 15.6594 9.33333 14.3333ZM21.3333 10.3333C21.3333 10.0681 21.4387 9.81376 21.6262 9.62623C21.8138 9.43869 22.0681 9.33333 22.3333 9.33333H23.6667C23.9319 9.33333 24.1862 9.43869 24.3738 9.62623C24.5613 9.81376 24.6667 10.0681 24.6667 10.3333C24.6667 10.5985 24.5613 10.8529 24.3738 11.0404C24.1862 11.228 23.9319 11.3333 23.6667 11.3333H22.3333C22.0681 11.3333 21.8138 11.228 21.6262 11.0404C21.4387 10.8529 21.3333 10.5985 21.3333 10.3333Z" fill="#FF8B76"/>
</svg>
