<svg width="687" height="401" viewBox="0 0 687 401" fill="none" xmlns="http://www.w3.org/2000/svg">
<g clip-path="url(#clip0_121_3092)">
<path d="M173.957 329.859C169.878 334.717 163.688 337.82 156.752 337.82C152.285 337.82 148.125 336.535 144.641 334.322C143.169 333.388 141.816 332.285 140.613 331.044L140.726 330.912C141.835 329.608 143.106 328.429 144.497 327.414C148.213 324.693 152.824 323.082 157.817 323.082C164.12 323.082 169.803 325.64 173.844 329.746L173.957 329.859Z" fill="url(#paint0_linear_121_3092)"/>
<path d="M270.694 266.046C270.694 321.91 236.886 369.874 188.624 390.575C187.703 390.97 186.776 391.346 185.842 391.722C182.703 384.932 180.955 377.516 180.955 369.31C180.955 366.978 181.099 364.683 181.375 362.427C181.983 357.405 183.248 352.584 185.084 348.052C173.049 352.534 164.684 351.938 164.684 351.938C190.284 344.303 211.129 312.005 211.129 312.005C211.129 312.005 211.142 312.005 211.173 312.011C213.88 307.729 216.298 303.253 218.403 298.608C208.73 295.774 200.134 290.426 193.367 283.33C193.354 283.317 193.342 283.305 193.336 283.292C191.061 284.308 188.574 284.872 185.968 284.872C180.454 284.872 175.473 282.364 171.921 278.34C171.864 278.283 171.814 278.221 171.758 278.158C171.814 278.083 171.871 278.007 171.933 277.932C174.959 273.976 179.257 271.243 184.138 270.485L184.169 270.516C180.604 263.727 178.387 256.128 177.854 248.066C177.848 248.035 177.848 247.997 177.848 247.966C177.829 247.828 177.823 247.697 177.816 247.565C166.163 258.862 152.028 267.613 136.309 272.917C138.1 273.995 139.717 275.374 141.108 276.986C137.524 281.8 132.067 284.872 125.958 284.872C120.37 284.872 115.32 282.289 111.755 278.164C108.234 278.503 104.656 278.678 101.047 278.678C97.0124 278.678 93.0277 278.465 89.1056 278.039C92.8334 294.169 100.089 308.933 110.019 321.496C110.019 321.496 110.021 321.498 110.026 321.502C111.774 323.721 113.609 325.865 115.52 327.94C115.52 327.947 115.526 327.947 115.533 327.953C115.577 327.991 115.62 328.034 115.664 328.072C117.068 329.376 118.402 330.755 119.668 332.197H119.674C119.837 332.391 119.994 332.573 120.15 332.755C120.15 332.755 120.152 332.759 120.157 332.768C128.151 340.698 138.345 348.628 149.434 351.938C149.434 351.938 141.321 352.515 129.573 348.246C131.39 352.709 132.643 357.455 133.27 362.401C133.564 364.74 133.715 367.128 133.715 369.542C133.715 381.303 130.131 391.954 124.003 401C123.985 400.994 123.966 400.994 123.947 400.994C122.694 400.893 121.447 400.768 120.207 400.63C101.047 397.22 82.8465 391.026 66.0491 382.475C26.2768 358.859 -0.413512 315.553 -2.42144e-08 266.046C0.363389 223.178 14.1972 196.735 33.0559 177.094C31.9908 182.542 31.3956 188.498 31.3956 194.736C31.3956 220.79 41.6582 241.91 54.3204 241.91C66.9827 241.91 77.2453 220.79 77.2453 194.736C77.2453 194.341 77.2453 193.939 77.239 193.544C76.8944 165.039 88.2973 137.637 109.123 118.178C132.18 96.6249 147.116 67.4926 137.75 12.35C137.079 8.36919 136.277 4.25669 135.344 0C139.535 3.9307 143.608 7.84885 147.561 11.7482C152.185 16.3121 156.646 20.8509 160.95 25.3771C183.675 49.2371 194.426 81.8676 191.218 114.667C191.155 115.332 191.105 116.015 191.074 116.73C190.523 129.224 199.419 139.374 209.713 139.374C215.684 139.374 221.003 135.957 224.418 130.653C225.088 129.6 225.69 128.478 226.204 127.293H226.21C230.483 131.594 234.536 135.857 238.383 140.095C240.927 142.891 243.095 145.918 244.893 149.109C249.097 156.582 251.234 164.951 251.234 173.358C251.234 182.599 248.652 191.889 243.389 200.083C237.155 210.885 238.02 223.385 244.899 229.98C246.347 233.566 248.765 236.55 252.086 238.462C257.255 241.453 263.557 241.252 269.372 238.519C270.274 247.916 270.687 257.094 270.687 266.046H270.694Z" fill="url(#paint1_linear_121_3092)"/>
<path d="M173.957 329.859C169.878 334.717 163.688 337.82 156.752 337.82C152.285 337.82 148.125 336.535 144.641 334.322C144.598 333.043 144.566 331.765 144.547 330.479C144.541 330.417 144.541 330.36 144.541 330.298C144.522 329.332 144.51 328.379 144.497 327.414C148.213 324.693 152.824 323.082 157.817 323.082C164.12 323.082 169.803 325.64 173.844 329.746L173.957 329.859Z" fill="url(#paint2_linear_121_3092)"/>
<path d="M301.908 310.437C280.23 387.747 191.757 400.216 190.773 400.354C188.887 397.602 187.239 394.743 185.861 391.766C185.855 391.753 185.849 391.734 185.842 391.722C182.703 384.932 180.955 377.516 180.955 369.31C180.955 366.978 181.099 364.683 181.375 362.427C181.983 357.405 183.248 352.584 185.084 348.052C173.048 352.534 164.684 351.938 164.684 351.938C190.284 344.303 211.129 312.005 211.129 312.005C211.129 312.005 211.142 312.005 211.173 312.011C213.88 307.729 216.298 303.253 218.403 298.608C208.73 295.774 200.134 290.426 193.367 283.33C193.354 283.317 193.342 283.305 193.336 283.292C191.061 284.308 188.574 284.872 185.968 284.872C180.454 284.872 175.473 282.364 171.921 278.34C171.927 278.202 171.927 278.07 171.933 277.932C174.959 273.976 179.257 271.243 184.138 270.485L184.169 270.516C180.604 263.727 178.387 256.128 177.854 248.066C177.848 248.035 177.848 247.998 177.848 247.966C183.236 234.061 192.17 221.617 204.081 211.988C222.169 197.356 234.499 175.671 227.325 133.75C226.974 131.7 226.667 129.462 226.216 127.299H226.21V127.281C227.219 128.277 228.221 129.274 229.211 130.265C233.478 134.559 239.022 140.458 242.869 144.696C243.703 145.618 244.505 146.564 245.256 147.53C252.18 156.394 255.356 168.725 255.356 179.539C255.356 188.78 252.769 198.065 247.506 206.258C242.888 214.264 242.168 223.203 244.906 229.98C246.353 233.566 248.771 236.55 252.092 238.462C257.261 241.453 263.564 241.252 269.378 238.519C270.481 238.005 271.558 237.397 272.617 236.707C276.345 234.256 279.716 230.733 282.253 226.332C285.718 220.326 286.99 213.8 286.257 208.051C318.216 255.539 303.919 300.664 301.908 310.437Z" fill="url(#paint3_linear_121_3092)"/>
<path d="M173.957 329.859C169.878 334.717 163.688 337.82 156.752 337.82C152.285 337.82 148.125 336.535 144.641 334.322C143.169 333.388 141.816 332.285 140.613 331.044L140.726 330.912C141.835 329.608 143.106 328.429 144.497 327.414C148.213 324.693 152.824 323.082 157.817 323.082C164.12 323.082 169.803 325.64 173.844 329.746L173.957 329.859Z" fill="#FFF9F2"/>
<path d="M173.957 329.859C165.718 329.182 163.65 329.527 156.708 329.527C151.865 329.527 148.507 329.921 144.547 330.479C143.313 330.655 142.029 330.849 140.613 331.044L140.726 330.912C141.835 329.608 143.106 328.429 144.497 327.414C148.213 324.693 152.824 323.082 157.817 323.082C164.12 323.082 169.803 325.64 173.844 329.746L173.957 329.859Z" fill="#DF3160"/>
<path d="M173.957 329.859C169.878 334.717 163.688 337.82 156.752 337.82C152.285 337.82 148.125 336.535 144.641 334.322C143.169 333.388 141.816 332.285 140.613 331.044L140.726 330.912C141.954 330.686 143.226 330.479 144.541 330.298C149.685 329.57 155.449 329.169 161.533 329.169C165.831 329.169 169.966 329.37 173.844 329.746L173.957 329.859Z" fill="#FF8B76"/>
<path d="M411.25 214.176V190.435H399.728C397.354 190.435 395.299 190.667 393.626 191.118C391.853 191.595 390.362 192.291 389.171 193.187C387.968 194.096 387.01 195.174 386.327 196.397C385.681 197.55 385.211 198.785 384.93 200.071C384.666 201.268 384.503 202.534 384.453 203.838C384.403 205.042 384.372 206.227 384.372 207.362V265.212H395.95C398.362 265.212 400.361 264.98 402.059 264.498C403.782 264.009 405.254 263.325 406.438 262.466C407.685 261.564 408.656 260.473 409.339 259.225C409.953 258.091 410.417 256.862 410.711 255.577C411 254.348 411.162 253.063 411.2 251.759C411.231 250.555 411.25 249.389 411.25 248.286V235.773C411.25 234.024 411.087 232.457 410.755 231.121C410.423 229.773 409.966 228.576 409.402 227.56C408.857 226.582 408.212 225.73 407.497 225.028C408.224 224.244 408.882 223.323 409.477 222.263C410.655 220.163 411.25 217.442 411.25 214.176ZM402.98 249.897C402.98 251.54 402.817 252.887 402.485 253.903C402.209 254.756 401.808 255.401 401.263 255.871C400.687 256.367 399.922 256.73 398.989 256.95C397.867 257.213 396.47 257.345 394.835 257.345H392.642V228.833H397.661C399.509 228.833 400.806 229.303 401.627 230.269C402.247 230.99 402.98 232.62 402.98 236.274V249.897ZM402.98 213.518C402.98 216.182 402.516 218.157 401.602 219.404C401.32 219.793 400.461 220.965 397.661 220.965H392.642V205.7C392.642 204.058 392.811 202.716 393.137 201.701C393.413 200.854 393.807 200.221 394.34 199.77C394.923 199.281 395.7 198.923 396.652 198.704C397.792 198.441 399.183 198.303 400.787 198.303H402.98V213.518Z" fill="url(#paint4_linear_121_3092)"/>
<path d="M524.809 262.466C524.408 260.717 524.039 259.113 523.7 257.646C523.362 256.185 522.98 254.511 522.541 252.624C522.103 250.737 521.652 248.781 521.182 246.744C520.718 244.75 520.254 242.75 519.791 240.75L519.766 240.638C519.296 238.606 518.857 236.719 518.456 234.989C518.043 233.209 517.704 231.729 517.429 230.469C517.272 229.761 517.141 229.172 517.028 228.683C518.049 227.216 518.939 225.567 519.697 223.78C520.593 221.667 521.326 219.223 521.871 216.514C522.41 213.863 522.811 210.853 523.074 207.562C523.324 204.308 523.456 200.591 523.456 196.516V190.435H511.984C509.616 190.435 507.561 190.667 505.875 191.118C504.115 191.595 502.611 192.291 501.427 193.187C500.224 194.096 499.266 195.174 498.583 196.397C497.937 197.55 497.467 198.785 497.185 200.071C496.922 201.268 496.766 202.534 496.709 203.838C496.653 205.042 496.628 206.227 496.628 207.362V265.212H504.848V238.205C506.189 237.597 507.454 236.951 508.62 236.274C509.14 235.973 509.653 235.66 510.148 235.328L516.79 265.212H525.442L524.809 262.466ZM515.186 200.804C515.186 204.91 514.96 208.509 514.503 211.493C514.058 214.452 513.463 216.997 512.742 219.06C512.041 221.059 511.226 222.727 510.324 224.012C509.409 225.316 508.463 226.394 507.517 227.209C506.627 227.974 505.731 228.595 504.848 229.059V205.7C504.848 204.058 505.017 202.716 505.343 201.701C505.619 200.854 506.013 200.221 506.546 199.77C507.122 199.281 507.905 198.923 508.858 198.704C509.998 198.441 511.389 198.303 512.993 198.303H515.186V200.804Z" fill="url(#paint5_linear_121_3092)"/>
<path d="M458.961 190.435H467.231V249.747C467.231 251.728 467.049 253.677 466.686 255.527C466.297 257.52 465.583 259.319 464.574 260.862C463.516 262.485 462.068 263.795 460.283 264.761C458.497 265.726 456.279 266.215 453.692 266.215C451.242 266.215 449.124 265.745 447.389 264.817C445.659 263.89 444.243 262.617 443.185 261.037C442.17 259.526 441.437 257.746 441.01 255.74C440.61 253.865 440.403 251.847 440.403 249.747V190.435H448.673V251.414C448.673 252.449 448.78 253.445 448.993 254.367C449.18 255.188 449.487 255.896 449.92 256.523C450.308 257.088 450.797 257.526 451.423 257.859C452.031 258.185 452.865 258.348 453.892 258.348C454.863 258.348 455.653 258.191 456.248 257.871C456.849 257.558 457.319 257.138 457.683 256.605C458.096 255.991 458.416 255.251 458.616 254.411C458.842 253.477 458.954 252.467 458.954 251.408V190.429L458.961 190.435Z" fill="url(#paint6_linear_121_3092)"/>
<path d="M686.95 203.87C686.912 202.547 686.743 201.255 686.461 200.039C686.167 198.773 685.703 197.557 685.089 196.428C684.412 195.187 683.46 194.096 682.251 193.181C681.067 192.291 679.569 191.595 677.802 191.118C676.123 190.667 674.081 190.435 671.744 190.435H660.172V265.212H671.744C674.093 265.212 676.142 264.974 677.821 264.498C679.576 264.009 681.054 263.319 682.226 262.454C683.448 261.557 684.406 260.473 685.089 259.225C685.703 258.091 686.167 256.862 686.461 255.577C686.743 254.348 686.912 253.063 686.95 251.759C686.981 250.562 687 249.396 687 248.286V207.362C687 206.258 686.981 205.08 686.95 203.87ZM678.73 250.004C678.73 251.64 678.567 252.988 678.235 254.003C677.959 254.856 677.564 255.489 677.038 255.947C676.487 256.423 675.741 256.762 674.814 256.969C673.686 257.219 672.283 257.345 670.635 257.345H668.442V198.303H670.635C672.27 198.303 673.667 198.441 674.789 198.698C675.722 198.917 676.481 199.274 677.038 199.757C677.564 200.209 677.959 200.848 678.235 201.694C678.561 202.716 678.73 204.058 678.73 205.7V250.004Z" fill="url(#paint7_linear_121_3092)"/>
<path d="M616.596 257.345H632.529V265.212H608.326V207.361C608.326 206.227 608.351 205.042 608.408 203.832C608.464 202.528 608.621 201.262 608.884 200.071C609.166 198.779 609.636 197.55 610.281 196.397C610.964 195.174 611.923 194.09 613.132 193.181C614.316 192.284 615.813 191.589 617.58 191.112C619.259 190.661 621.314 190.429 623.689 190.429H631.276V198.296H624.748C623.144 198.296 621.753 198.428 620.613 198.691C619.66 198.911 618.883 199.268 618.301 199.757C617.768 200.208 617.373 200.842 617.098 201.688C616.766 202.704 616.603 204.045 616.603 205.688V220.953H631.326V228.82H616.603V257.332L616.596 257.345Z" fill="url(#paint8_linear_121_3092)"/>
<path d="M570.408 190.435H578.679V265.212H570.408V224.67C570.408 220.809 570.032 217.379 569.293 214.477C568.56 211.606 567.57 209.111 566.336 207.048C565.133 205.029 563.711 203.337 562.126 202.027C561.462 201.481 560.772 200.98 560.071 200.522V265.206H551.8V190.429H557.414L557.74 190.529C559.488 191.074 561.192 191.808 562.815 192.698C564.438 193.595 565.985 194.66 567.42 195.877C568.485 196.779 569.487 197.776 570.408 198.842V190.422V190.435Z" fill="url(#paint9_linear_121_3092)"/>
<path d="M399.728 294.84C397.354 294.84 395.299 295.072 393.626 295.523C391.853 296 390.362 296.695 389.177 297.592C387.968 298.501 387.01 299.579 386.327 300.802C385.681 301.955 385.211 303.19 384.93 304.475C384.666 305.673 384.503 306.939 384.453 308.243C384.403 309.447 384.372 310.632 384.372 311.766V355.111C384.372 357.217 384.579 359.229 384.98 361.104C385.406 363.11 386.139 364.89 387.147 366.401C388.206 367.987 389.622 369.26 391.358 370.188C393.093 371.115 395.211 371.586 397.661 371.586C400.248 371.586 402.46 371.097 404.246 370.131C406.037 369.166 407.478 367.856 408.537 366.232C409.552 364.683 410.26 362.884 410.655 360.891C411.018 359.041 411.2 357.098 411.2 355.111V294.84H399.728ZM402.93 356.778C402.93 357.838 402.817 358.847 402.591 359.781C402.385 360.621 402.071 361.361 401.658 361.975C401.288 362.514 400.818 362.928 400.223 363.241C399.628 363.555 398.832 363.718 397.861 363.718C396.834 363.718 396 363.549 395.393 363.223C394.766 362.89 394.271 362.452 393.889 361.887C393.457 361.26 393.156 360.552 392.962 359.731C392.749 358.809 392.642 357.812 392.642 356.778V310.105C392.642 308.463 392.811 307.121 393.137 306.105C393.413 305.259 393.807 304.626 394.34 304.174C394.923 303.685 395.7 303.328 396.652 303.109C397.792 302.845 399.183 302.707 400.787 302.707H402.93V356.778Z" fill="url(#paint10_linear_121_3092)"/>
<path d="M459.462 295.799H467.732V370.576H459.462V330.034C459.462 326.173 459.086 322.743 458.347 319.841C457.614 316.97 456.617 314.475 455.389 312.412C454.187 310.393 452.764 308.701 451.179 307.391C450.515 306.845 449.826 306.344 449.124 305.886V370.57H440.854V295.793H446.468L446.793 295.893C448.541 296.438 450.246 297.172 451.868 298.062C453.491 298.959 455.039 300.024 456.473 301.241C457.538 302.143 458.541 303.14 459.462 304.206V295.786V295.799Z" fill="url(#paint11_linear_121_3092)"/>
<path d="M566.273 320.624V308.086C566.273 307.271 566.142 306.525 565.879 305.867C565.609 305.196 565.258 304.632 564.801 304.137C564.375 303.679 563.867 303.328 563.247 303.059C562.614 302.789 561.944 302.657 561.198 302.657C560.371 302.657 559.632 302.795 558.993 303.077C558.348 303.359 557.828 303.717 557.395 304.187C556.95 304.67 556.612 305.221 556.355 305.886C556.105 306.55 555.973 307.29 555.973 308.086V314.192C555.973 315.12 556.155 315.954 556.524 316.756C556.944 317.672 557.514 318.556 558.204 319.389C558.949 320.286 559.801 321.157 560.747 321.985C561.775 322.881 562.834 323.79 563.899 324.687C565.108 325.696 566.342 326.768 567.545 327.871C568.817 329.031 569.97 330.285 570.966 331.595C572 332.949 572.846 334.404 573.491 335.915C574.18 337.538 574.525 339.294 574.525 341.131V358.339C574.525 360.257 574.168 362.057 573.453 363.68C572.752 365.285 571.781 366.702 570.559 367.874C569.337 369.047 567.896 369.974 566.267 370.62C564.644 371.26 562.903 371.586 561.079 371.586C559.256 371.586 557.383 371.241 555.748 370.551C554.125 369.874 552.703 368.928 551.512 367.761C550.309 366.577 549.357 365.154 548.693 363.536C548.029 361.925 547.69 360.176 547.69 358.339V345.193H555.961V358.289C555.961 359.11 556.092 359.856 556.355 360.508C556.625 361.185 556.976 361.749 557.433 362.238C557.865 362.702 558.366 363.053 558.974 363.323C559.588 363.586 560.259 363.718 561.029 363.718C561.85 363.718 562.577 363.58 563.197 363.304C563.836 363.022 564.375 362.646 564.826 362.169C565.277 361.693 565.622 361.141 565.866 360.496C566.117 359.831 566.248 359.091 566.248 358.295V341.137C566.248 340.278 566.085 339.488 565.741 338.729C565.352 337.871 564.813 337.012 564.149 336.191C563.435 335.313 562.608 334.448 561.693 333.62C560.728 332.749 559.707 331.865 558.673 330.993C557.427 329.947 556.161 328.868 554.927 327.784C553.605 326.624 552.408 325.37 551.368 324.06C550.29 322.7 549.407 321.214 548.743 319.665C548.035 318.01 547.678 316.173 547.678 314.192V308.036C547.678 306.118 548.035 304.319 548.743 302.682C549.445 301.046 550.428 299.629 551.65 298.463C552.865 297.31 554.3 296.401 555.923 295.761C557.546 295.122 559.275 294.796 561.061 294.796C562.965 294.796 564.757 295.141 566.392 295.83C568.015 296.514 569.444 297.46 570.653 298.645C571.868 299.843 572.827 301.266 573.497 302.858C574.168 304.457 574.5 306.199 574.5 308.036V320.624H566.229H566.273Z" fill="url(#paint12_linear_121_3092)"/>
<path d="M505.656 362.709H521.589V370.576H497.386V312.725C497.386 311.591 497.411 310.406 497.461 309.196C497.518 307.892 497.68 306.626 497.944 305.435C498.226 304.143 498.695 302.914 499.341 301.761C500.024 300.538 500.982 299.454 502.185 298.545C503.369 297.648 504.867 296.953 506.634 296.476C508.313 296.025 510.368 295.793 512.742 295.793H520.33V303.66H513.801C512.197 303.66 510.806 303.792 509.666 304.055C508.714 304.275 507.937 304.632 507.354 305.121C506.815 305.572 506.427 306.206 506.151 307.052C505.819 308.068 505.656 309.409 505.656 311.052V326.317H520.38V334.184H505.656V362.696V362.709Z" fill="url(#paint13_linear_121_3092)"/>
</g>
<defs>
<linearGradient id="paint0_linear_121_3092" x1="152.404" y1="324.543" x2="159.107" y2="332.645" gradientUnits="userSpaceOnUse">
<stop stop-color="#FFB77B"/>
<stop offset="0.5" stop-color="#FF8B76"/>
<stop offset="1" stop-color="#DF3160"/>
</linearGradient>
<linearGradient id="paint1_linear_121_3092" x1="48.8257" y1="131.694" x2="157.136" y2="262.66" gradientUnits="userSpaceOnUse">
<stop stop-color="#FFB77B"/>
<stop offset="0.5" stop-color="#FF8B76"/>
<stop offset="1" stop-color="#DF3160"/>
</linearGradient>
<linearGradient id="paint2_linear_121_3092" x1="160.75" y1="324.499" x2="155.538" y2="338.627" gradientUnits="userSpaceOnUse">
<stop stop-color="#FFB77B"/>
<stop offset="0.5" stop-color="#FF8B76"/>
<stop offset="1" stop-color="#DF3160"/>
</linearGradient>
<linearGradient id="paint3_linear_121_3092" x1="278.281" y1="175.433" x2="196.094" y2="398.373" gradientUnits="userSpaceOnUse">
<stop stop-color="#FFB77B"/>
<stop offset="0.5" stop-color="#FF8B76"/>
<stop offset="1" stop-color="#DF3160"/>
</linearGradient>
<linearGradient id="paint4_linear_121_3092" x1="371.71" y1="227.868" x2="946.855" y2="226.891" gradientUnits="userSpaceOnUse">
<stop stop-color="#FFB77B"/>
<stop offset="0.5" stop-color="#FF8B76"/>
<stop offset="1" stop-color="#DF3160"/>
</linearGradient>
<linearGradient id="paint5_linear_121_3092" x1="371.716" y1="228.074" x2="946.818" y2="227.098" gradientUnits="userSpaceOnUse">
<stop stop-color="#FFB77B"/>
<stop offset="0.5" stop-color="#FF8B76"/>
<stop offset="1" stop-color="#DF3160"/>
</linearGradient>
<linearGradient id="paint6_linear_121_3092" x1="371.71" y1="228.457" x2="946.848" y2="227.48" gradientUnits="userSpaceOnUse">
<stop stop-color="#FFB77B"/>
<stop offset="0.5" stop-color="#FF8B76"/>
<stop offset="1" stop-color="#DF3160"/>
</linearGradient>
<linearGradient id="paint7_linear_121_3092" x1="371.715" y1="228.325" x2="946.843" y2="227.348" gradientUnits="userSpaceOnUse">
<stop stop-color="#FFB77B"/>
<stop offset="0.5" stop-color="#FF8B76"/>
<stop offset="1" stop-color="#DF3160"/>
</linearGradient>
<linearGradient id="paint8_linear_121_3092" x1="371.71" y1="228.256" x2="946.848" y2="227.286" gradientUnits="userSpaceOnUse">
<stop stop-color="#FFB77B"/>
<stop offset="0.5" stop-color="#FF8B76"/>
<stop offset="1" stop-color="#DF3160"/>
</linearGradient>
<linearGradient id="paint9_linear_121_3092" x1="371.71" y1="228.15" x2="946.849" y2="227.179" gradientUnits="userSpaceOnUse">
<stop stop-color="#FFB77B"/>
<stop offset="0.5" stop-color="#FF8B76"/>
<stop offset="1" stop-color="#DF3160"/>
</linearGradient>
<linearGradient id="paint10_linear_121_3092" x1="1.42841" y1="333.883" x2="576.605" y2="332.913" gradientUnits="userSpaceOnUse">
<stop stop-color="#FFB77B"/>
<stop offset="0.5" stop-color="#FF8B76"/>
<stop offset="1" stop-color="#DF3160"/>
</linearGradient>
<linearGradient id="paint11_linear_121_3092" x1="1.46022" y1="333.959" x2="576.598" y2="332.982" gradientUnits="userSpaceOnUse">
<stop stop-color="#FFB77B"/>
<stop offset="0.5" stop-color="#FF8B76"/>
<stop offset="1" stop-color="#DF3160"/>
</linearGradient>
<linearGradient id="paint12_linear_121_3092" x1="1.46014" y1="334.134" x2="576.599" y2="333.164" gradientUnits="userSpaceOnUse">
<stop stop-color="#FFB77B"/>
<stop offset="0.5" stop-color="#FF8B76"/>
<stop offset="1" stop-color="#DF3160"/>
</linearGradient>
<linearGradient id="paint13_linear_121_3092" x1="1.45976" y1="334.065" x2="576.599" y2="333.088" gradientUnits="userSpaceOnUse">
<stop stop-color="#FFB77B"/>
<stop offset="0.5" stop-color="#FF8B76"/>
<stop offset="1" stop-color="#DF3160"/>
</linearGradient>
<clipPath id="clip0_121_3092">
<rect width="687" height="401" fill="white"/>
</clipPath>
</defs>
</svg>
