<svg width="480" height="453" viewBox="0 0 480 453" fill="none" xmlns="http://www.w3.org/2000/svg">
<path d="M255.638 238.031C255.687 237.965 255.736 237.9 255.785 237.839C255.785 237.953 255.781 238.073 255.777 238.186C255.728 238.137 255.683 238.084 255.638 238.031Z" fill="url(#paint0_linear_53_111)"/>
<path d="M283.313 181.402C273.115 189.642 265.464 200.3 260.85 212.198C260.838 212.083 260.834 211.968 260.825 211.851C250.847 221.52 238.744 229.007 225.284 233.543C226.816 234.466 228.201 235.645 229.394 237.027C226.326 241.145 221.653 243.775 216.426 243.775C211.636 243.775 207.313 241.567 204.261 238.035C201.246 238.326 198.185 238.478 195.091 238.478C191.637 238.478 188.223 238.293 184.867 237.928C188.055 251.729 194.271 264.369 202.774 275.116C202.774 275.116 202.775 275.119 202.778 275.125C204.278 277.021 205.847 278.858 207.487 280.632C207.487 280.637 207.491 280.637 207.495 280.641C207.532 280.677 207.574 280.711 207.606 280.747C208.81 281.862 209.954 283.038 211.036 284.276L211.045 284.284C211.179 284.44 211.315 284.595 211.45 284.755C211.45 284.755 211.454 284.759 211.454 284.764C218.3 291.548 227.028 298.339 236.526 301.17C236.526 301.17 229.581 301.662 219.521 298.01C221.074 301.829 222.152 305.89 222.685 310.122C222.939 312.125 223.066 314.166 223.066 316.231C223.066 326.295 220.002 335.412 214.744 343.151C214.731 343.151 214.716 343.147 214.703 343.147C213.63 343.057 212.56 342.955 211.499 342.836C195.092 339.919 179.51 334.616 165.127 327.302C131.074 307.094 108.217 270.032 108.578 227.664C108.889 190.983 120.735 168.353 136.883 151.545C135.964 156.208 135.461 161.306 135.461 166.644C135.461 188.942 144.246 207.013 155.092 207.013C165.938 207.013 174.718 188.942 174.718 166.644C174.718 166.303 174.718 165.964 174.714 165.624C174.42 141.227 184.179 117.782 202.011 101.126C221.757 82.6863 234.546 57.754 226.526 10.5667C225.948 7.16177 225.264 3.64186 224.465 0C228.055 3.36431 231.537 6.716 234.926 10.0551C238.88 13.9605 242.703 17.8449 246.387 21.7124C265.845 42.1296 275.056 70.0589 272.307 98.1271C272.25 98.6962 272.209 99.2822 272.18 99.8891C271.709 110.579 279.326 119.266 288.143 119.266C293.257 119.266 297.809 116.345 300.731 111.804C301.309 110.907 301.822 109.948 302.264 108.932C302.653 110.788 302.915 112.702 303.214 114.459C309.361 150.329 298.801 168.883 283.313 181.405V181.402Z" fill="url(#paint1_linear_53_111)"/>
<path d="M367.077 265.656C348.512 331.834 272.708 342.492 271.922 342.599C270.303 340.242 268.894 337.796 267.713 335.248C267.709 335.235 267.705 335.227 267.697 335.216C265.012 329.405 263.514 323.058 263.514 316.035C263.514 314.039 263.637 312.076 263.87 310.143C264.39 305.845 265.476 301.718 267.045 297.842C256.74 301.678 249.581 301.17 249.581 301.17C271.498 294.639 289.347 266.997 289.347 266.997C289.347 266.997 289.36 266.997 289.384 267.001C291.702 263.338 293.773 259.507 295.575 255.529C287.295 253.104 279.931 248.534 274.138 242.459C274.129 242.446 274.121 242.438 274.113 242.429C272.167 243.298 270.036 243.778 267.803 243.778C263.083 243.778 258.818 241.634 255.777 238.189C255.781 238.074 255.786 237.955 255.786 237.841C258.375 234.457 262.059 232.116 266.239 231.466L266.264 231.494C263.215 225.688 261.31 219.181 260.856 212.281C260.852 212.257 260.852 212.232 260.852 212.202C265.465 200.304 273.116 189.646 283.314 181.406C298.802 168.884 309.362 150.331 303.215 114.461C302.917 112.703 302.655 110.789 302.265 108.934V108.921C303.13 109.773 303.982 110.625 304.83 111.474C308.489 115.149 313.23 120.197 316.528 123.823C317.246 124.61 317.926 125.421 318.573 126.248C324.503 133.834 327.22 144.388 327.22 153.637C327.22 161.549 325.008 169.494 320.499 176.504C316.545 183.359 315.927 191.004 318.271 196.804C319.513 199.872 321.582 202.425 324.424 204.065C328.85 206.622 334.247 206.449 339.229 204.11C340.171 203.671 341.097 203.151 341.999 202.561C345.191 200.462 348.08 197.451 350.255 193.682C353.217 188.544 354.308 182.958 353.677 178.042C381.049 218.677 368.801 257.295 367.08 265.658L367.077 265.656Z" fill="url(#paint2_linear_53_111)"/>
<path d="M257.42 282.18C254.105 281.856 250.561 281.684 246.881 281.684C241.674 281.684 236.741 282.029 232.335 282.647C231.208 282.802 230.119 282.979 229.065 283.171C230.019 282.057 231.101 281.053 232.293 280.18C235.472 277.853 239.418 276.472 243.701 276.472C249.093 276.472 253.96 278.66 257.419 282.18H257.42Z" fill="#DF3160"/>
<path d="M257.52 282.274C254.029 286.433 248.73 289.084 242.79 289.084C238.963 289.084 235.402 287.986 232.419 286.092C231.157 285.293 230.001 284.347 228.969 283.286C229.001 283.25 229.035 283.208 229.067 283.171C230.12 282.979 231.211 282.802 232.338 282.647C236.742 282.029 241.677 281.684 246.884 281.684C250.564 281.684 254.108 281.856 257.423 282.18C257.455 282.208 257.489 282.242 257.521 282.274H257.52Z" fill="#FF8B76"/>
<path d="M23.0147 408.459V388.145H13.1474C11.1176 388.145 9.35698 388.341 7.92014 388.729C6.40621 389.138 5.12496 389.731 4.10866 390.498C3.07974 391.276 2.25829 392.201 1.67094 393.248C1.11723 394.233 0.716317 395.288 0.47661 396.391C0.252323 397.415 0.113545 398.498 0.0672862 399.613C0.0224287 400.644 0 401.658 0 402.631V452.136H9.90929C11.9783 452.136 13.6899 451.936 15.1394 451.524C16.6169 451.105 17.8785 450.522 18.8934 449.786C19.9574 449.016 20.7928 448.083 21.3774 447.01C21.9031 446.04 22.2998 444.992 22.5535 443.891C22.7974 442.838 22.9376 441.739 22.9698 440.622C22.9993 439.596 23.0147 438.595 23.0147 437.652V426.942C23.0147 425.444 22.8731 424.105 22.5899 422.964C22.3054 421.807 21.9157 420.784 21.4292 419.913C20.961 419.078 20.4129 418.35 19.8004 417.749C20.4186 417.076 20.9849 416.287 21.4923 415.383C22.5002 413.587 23.0133 411.259 23.0133 408.462L23.0147 408.459ZM15.9342 407.899C15.9342 410.175 15.5361 411.869 14.7525 412.935C14.51 413.266 13.7726 414.268 11.377 414.268H7.08047V401.206C7.08047 399.802 7.22205 398.651 7.50521 397.783C7.73931 397.059 8.07574 396.519 8.53413 396.133C9.03037 395.714 9.69622 395.407 10.5121 395.219C11.4891 394.992 12.6806 394.879 14.0544 394.879H15.9328V407.899H15.9342ZM7.08047 421.003H11.377C12.9596 421.003 14.0698 421.404 14.7735 422.228C15.302 422.849 15.9342 424.245 15.9342 427.372V439.03C15.9342 440.434 15.7898 441.585 15.5095 442.454C15.2712 443.185 14.9291 443.736 14.4623 444.139C13.9689 444.565 13.3143 444.875 12.5166 445.062C11.5564 445.286 10.3593 445.399 8.95887 445.399H7.08047V421.003Z" fill="url(#paint3_linear_53_111)"/>
<path d="M120.25 449.783C119.904 448.287 119.587 446.913 119.3 445.659C119.011 444.407 118.682 442.973 118.307 441.359C117.933 439.747 117.545 438.071 117.141 436.328C116.746 434.621 116.349 432.911 115.954 431.202L115.931 431.105C115.528 429.363 115.155 427.749 114.81 426.266C114.454 424.745 114.166 423.481 113.928 422.4C113.795 421.797 113.683 421.29 113.586 420.875C114.458 419.615 115.225 418.207 115.874 416.678C116.638 414.871 117.264 412.778 117.735 410.46C118.197 408.189 118.54 405.614 118.761 402.802C118.98 400.015 119.092 396.833 119.092 393.345V388.143H109.269C107.239 388.143 105.478 388.339 104.04 388.728C102.529 389.137 101.245 389.73 100.231 390.497C99.1994 391.275 98.3794 392.2 97.792 393.247C97.2411 394.231 96.8388 395.287 96.5977 396.39C96.3748 397.413 96.236 398.497 96.1884 399.611C96.1435 400.643 96.1211 401.656 96.1211 402.629V452.135H103.16V429.022C104.308 428.504 105.39 427.95 106.391 427.372C106.836 427.113 107.272 426.842 107.699 426.559L113.387 452.134H120.795L120.254 449.783H120.25ZM103.157 401.205C103.157 399.8 103.298 398.65 103.581 397.782C103.816 397.057 104.153 396.517 104.61 396.132C105.107 395.713 105.772 395.406 106.588 395.218C107.565 394.991 108.757 394.877 110.131 394.877H112.009V397.015C112.009 400.528 111.813 403.608 111.424 406.162C111.04 408.695 110.533 410.873 109.915 412.635C109.313 414.347 108.617 415.774 107.844 416.877C107.061 417.993 106.252 418.914 105.443 419.611C104.68 420.268 103.912 420.799 103.155 421.196V401.205H103.157Z" fill="url(#paint4_linear_53_111)"/>
<path d="M63.8644 388.143H70.9449V438.901C70.9449 440.597 70.7879 442.262 70.4767 443.848C70.143 445.554 69.5332 447.091 68.6669 448.416C67.7586 449.805 66.5236 450.927 64.9928 451.755C63.4621 452.581 61.564 453 59.3506 453C57.2549 453 55.4396 452.596 53.9523 451.801C52.4692 451.007 51.2566 449.917 50.3511 448.565C49.4834 447.272 48.8568 445.747 48.4923 444.031C48.1489 442.428 47.9736 440.701 47.9736 438.902V388.144H55.0541V440.328C55.0541 441.214 55.1466 442.065 55.3289 442.854C55.4915 443.559 55.7508 444.164 56.1209 444.701C56.4517 445.184 56.8722 445.558 57.4091 445.844C57.9292 446.123 58.6399 446.264 59.5244 446.264C60.3557 446.264 61.0342 446.128 61.543 445.859C62.0575 445.589 62.4598 445.233 62.7724 444.774C63.1284 444.25 63.399 443.618 63.5728 442.896C63.7663 442.098 63.8644 441.235 63.8644 440.328V388.144V388.143Z" fill="url(#paint5_linear_53_111)"/>
<path d="M259.08 399.638C259.048 398.507 258.907 397.403 258.663 396.36C258.41 395.277 258.014 394.238 257.487 393.27C256.911 392.211 256.093 391.278 255.055 390.494C254.04 389.73 252.759 389.136 251.247 388.726C249.81 388.338 248.063 388.142 246.063 388.142H236.153V452.132H246.063C248.074 452.132 249.825 451.926 251.269 451.521C252.768 451.101 254.038 450.513 255.04 449.772C256.084 449.003 256.907 448.074 257.489 447.006C258.014 446.036 258.413 444.987 258.666 443.887C258.909 442.834 259.049 441.735 259.081 440.618C259.111 439.596 259.126 438.597 259.126 437.648V402.628C259.126 401.68 259.111 400.674 259.081 399.636L259.08 399.638ZM243.233 394.877H245.114C246.513 394.877 247.708 394.991 248.669 395.215C249.468 395.402 250.117 395.707 250.595 396.118C251.046 396.506 251.383 397.052 251.618 397.779C251.898 398.65 252.043 399.8 252.043 401.204V439.115C252.043 440.52 251.901 441.671 251.618 442.538C251.381 443.269 251.046 443.813 250.595 444.202C250.122 444.61 249.483 444.903 248.691 445.078C247.725 445.292 246.521 445.399 245.112 445.399H243.231V394.877H243.233Z" fill="url(#paint6_linear_53_111)"/>
<path d="M198.845 445.399H212.488V452.134H191.764V402.628C191.764 401.656 191.787 400.642 191.832 399.61C191.878 398.495 192.017 397.412 192.241 396.388C192.481 395.285 192.883 394.23 193.435 393.246C194.021 392.199 194.843 391.273 195.874 390.495C196.889 389.729 198.17 389.136 199.683 388.726C201.12 388.338 202.879 388.142 204.912 388.142H211.408V394.876H205.817C204.444 394.876 203.253 394.99 202.275 395.217C201.459 395.404 200.792 395.713 200.297 396.131C199.84 396.516 199.502 397.056 199.268 397.78C198.986 398.648 198.843 399.799 198.843 401.204V414.266H211.452V421H198.843V445.397L198.845 445.399Z" fill="url(#paint7_linear_53_111)"/>
<path d="M159.293 388.143H166.374V452.134H159.293V417.441C159.293 414.137 158.971 411.201 158.337 408.717C157.71 406.263 156.86 404.122 155.807 402.362C154.775 400.633 153.561 399.188 152.2 398.066C151.629 397.598 151.042 397.169 150.441 396.781V452.134H143.36V388.143H148.164L148.445 388.23C149.94 388.698 151.402 389.323 152.792 390.087C154.178 390.851 155.505 391.768 156.735 392.81C157.647 393.583 158.504 394.434 159.293 395.35V388.144V388.143Z" fill="url(#paint8_linear_53_111)"/>
<path d="M330.179 387.323C328.146 387.323 326.387 387.519 324.95 387.908C323.436 388.315 322.155 388.91 321.141 389.677C320.11 390.455 319.29 391.38 318.702 392.427C318.149 393.411 317.748 394.467 317.508 395.57C317.284 396.593 317.145 397.677 317.099 398.791C317.054 399.82 317.031 400.836 317.031 401.809V438.902C317.031 440.701 317.207 442.428 317.549 444.031C317.916 445.747 318.541 447.272 319.407 448.565C320.314 449.917 321.526 451.007 323.011 451.801C324.496 452.596 326.314 453 328.41 453C330.623 453 332.52 452.581 334.049 451.755C335.58 450.929 336.818 449.805 337.723 448.416C338.59 447.09 339.198 445.554 339.534 443.848C339.844 442.262 340.001 440.597 340.001 438.901V387.323H330.18H330.179ZM331.829 444.773C331.513 445.231 331.112 445.589 330.599 445.858C330.091 446.127 329.411 446.263 328.581 446.263C327.698 446.263 326.984 446.121 326.464 445.842C325.929 445.556 325.508 445.182 325.177 444.7C324.807 444.162 324.549 443.557 324.385 442.852C324.203 442.063 324.11 441.212 324.11 440.326V400.384C324.11 398.982 324.252 397.831 324.535 396.962C324.769 396.237 325.107 395.697 325.564 395.312C326.06 394.893 326.726 394.586 327.542 394.398C328.518 394.171 329.711 394.057 331.084 394.057H332.919V440.326C332.919 441.233 332.821 442.097 332.629 442.894C332.453 443.616 332.183 444.248 331.829 444.773Z" fill="url(#paint9_linear_53_111)"/>
<path d="M381.325 388.143H388.405V452.134H381.325V417.441C381.325 414.135 381.004 411.2 380.37 408.717C379.744 406.26 378.891 404.122 377.84 402.362C376.808 400.633 375.594 399.188 374.233 398.066C373.663 397.598 373.075 397.169 372.474 396.781V452.134H365.393V388.143H370.197L370.478 388.23C371.973 388.698 373.436 389.323 374.825 390.087C376.214 390.851 377.539 391.768 378.768 392.81C379.681 393.583 380.537 394.434 381.325 395.35V388.144V388.143Z" fill="url(#paint10_linear_53_111)"/>
<path d="M472.781 409.386V398.655C472.781 397.956 472.667 397.318 472.443 396.756C472.214 396.181 471.913 395.697 471.523 395.277C471.16 394.883 470.724 394.583 470.194 394.357C469.653 394.127 469.079 394.015 468.442 394.015C467.733 394.015 467.099 394.134 466.555 394.373C466.002 394.612 465.556 394.922 465.187 395.322C464.805 395.732 464.514 396.208 464.298 396.774C464.081 397.34 463.972 397.977 463.972 398.657V403.881C463.972 404.673 464.126 405.391 464.443 406.076C464.805 406.858 465.288 407.617 465.881 408.332C466.518 409.098 467.251 409.846 468.061 410.551C468.938 411.315 469.845 412.093 470.759 412.864C471.795 413.726 472.849 414.647 473.881 415.592C474.97 416.587 475.956 417.658 476.811 418.778C477.697 419.936 478.423 421.179 478.974 422.473C479.564 423.862 479.861 425.364 479.861 426.939V441.665C479.861 443.305 479.554 444.844 478.944 446.235C478.342 447.61 477.509 448.818 476.469 449.825C475.429 450.831 474.191 451.623 472.796 452.174C471.407 452.722 469.916 452.999 468.355 452.999C466.795 452.999 465.187 452.701 463.791 452.115C462.402 451.534 461.182 450.729 460.165 449.728C459.136 448.716 458.32 447.498 457.751 446.111C457.18 444.732 456.891 443.236 456.891 441.666V430.417H463.972V441.622C463.972 442.322 464.085 442.96 464.31 443.52C464.54 444.097 464.84 444.582 465.229 445.001C465.598 445.399 466.028 445.701 466.548 445.926C467.073 446.154 467.649 446.264 468.31 446.264C469.016 446.264 469.638 446.145 470.166 445.911C470.716 445.667 471.173 445.35 471.561 444.941C471.949 444.532 472.241 444.063 472.454 443.506C472.671 442.936 472.781 442.303 472.781 441.622V426.941C472.781 426.203 472.639 425.529 472.346 424.881C472.014 424.144 471.554 423.412 470.984 422.709C470.375 421.956 469.666 421.216 468.882 420.509C468.054 419.763 467.185 419.009 466.299 418.263C465.229 417.368 464.15 416.444 463.093 415.516C461.963 414.525 460.938 413.452 460.047 412.327C459.123 411.161 458.368 409.893 457.801 408.564C457.196 407.15 456.89 405.576 456.89 403.881V398.614C456.89 396.974 457.197 395.434 457.804 394.031C458.407 392.632 459.245 391.416 460.294 390.42C461.332 389.434 462.564 388.655 463.955 388.105C465.344 387.557 466.823 387.28 468.354 387.28C469.984 387.28 471.522 387.577 472.918 388.163C474.304 388.747 475.532 389.557 476.566 390.574C477.609 391.6 478.429 392.814 478.999 394.181C479.571 395.55 479.86 397.04 479.86 398.614V409.387H472.779L472.781 409.386Z" fill="url(#paint11_linear_53_111)"/>
<path d="M420.878 445.399H434.521V452.134H413.797V402.628C413.797 401.656 413.818 400.642 413.863 399.61C413.911 398.495 414.05 397.412 414.274 396.388C414.514 395.285 414.916 394.23 415.468 393.246C416.054 392.199 416.876 391.273 417.906 390.495C418.922 389.729 420.203 389.136 421.715 388.726C423.153 388.338 424.913 388.142 426.943 388.142H433.442V394.876H427.85C426.479 394.876 425.286 394.99 424.309 395.217C423.493 395.404 422.826 395.713 422.331 396.131C421.872 396.516 421.537 397.056 421.301 397.78C421.019 398.648 420.876 399.799 420.876 401.204V414.266H433.485V421H420.876V445.397L420.878 445.399Z" fill="url(#paint12_linear_53_111)"/>
<path d="M287.114 425.669C290.168 425.669 292.644 423.193 292.644 420.139C292.644 417.085 290.168 414.609 287.114 414.609C284.06 414.609 281.584 417.085 281.584 420.139C281.584 423.193 284.06 425.669 287.114 425.669Z" fill="url(#paint13_linear_53_111)"/>
<defs>
<linearGradient id="paint0_linear_53_111" x1="255.717" y1="237.941" x2="255.801" y2="238.042" gradientUnits="userSpaceOnUse">
<stop stop-color="#FFB77B"/>
<stop offset="0.5" stop-color="#FF8B76"/>
<stop offset="1" stop-color="#DF3160"/>
</linearGradient>
<linearGradient id="paint1_linear_53_111" x1="149.824" y1="122.866" x2="252.341" y2="220.442" gradientUnits="userSpaceOnUse">
<stop stop-color="#FFB77B"/>
<stop offset="0.5" stop-color="#FF8B76"/>
<stop offset="1" stop-color="#DF3160"/>
</linearGradient>
<linearGradient id="paint2_linear_53_111" x1="351.692" y1="128.678" x2="282.073" y2="332.558" gradientUnits="userSpaceOnUse">
<stop stop-color="#FFB77B"/>
<stop offset="0.5" stop-color="#FF8B76"/>
<stop offset="1" stop-color="#DF3160"/>
</linearGradient>
<linearGradient id="paint3_linear_53_111" x1="-10.8429" y1="420.177" x2="481.622" y2="419.341" gradientUnits="userSpaceOnUse">
<stop stop-color="#FFB77B"/>
<stop offset="0.5" stop-color="#FF8B76"/>
<stop offset="1" stop-color="#DF3160"/>
</linearGradient>
<linearGradient id="paint4_linear_53_111" x1="-10.8415" y1="420.352" x2="481.622" y2="419.517" gradientUnits="userSpaceOnUse">
<stop stop-color="#FFB77B"/>
<stop offset="0.5" stop-color="#FF8B76"/>
<stop offset="1" stop-color="#DF3160"/>
</linearGradient>
<linearGradient id="paint5_linear_53_111" x1="-10.8415" y1="420.68" x2="481.622" y2="419.846" gradientUnits="userSpaceOnUse">
<stop stop-color="#FFB77B"/>
<stop offset="0.5" stop-color="#FF8B76"/>
<stop offset="1" stop-color="#DF3160"/>
</linearGradient>
<linearGradient id="paint6_linear_53_111" x1="-10.8415" y1="420.565" x2="481.622" y2="419.731" gradientUnits="userSpaceOnUse">
<stop stop-color="#FFB77B"/>
<stop offset="0.5" stop-color="#FF8B76"/>
<stop offset="1" stop-color="#DF3160"/>
</linearGradient>
<linearGradient id="paint7_linear_53_111" x1="-10.8414" y1="420.511" x2="481.622" y2="419.677" gradientUnits="userSpaceOnUse">
<stop stop-color="#FFB77B"/>
<stop offset="0.5" stop-color="#FF8B76"/>
<stop offset="1" stop-color="#DF3160"/>
</linearGradient>
<linearGradient id="paint8_linear_53_111" x1="-10.8415" y1="420.419" x2="481.622" y2="419.585" gradientUnits="userSpaceOnUse">
<stop stop-color="#FFB77B"/>
<stop offset="0.5" stop-color="#FF8B76"/>
<stop offset="1" stop-color="#DF3160"/>
</linearGradient>
<linearGradient id="paint9_linear_53_111" x1="-10.8412" y1="420.738" x2="481.622" y2="419.902" gradientUnits="userSpaceOnUse">
<stop stop-color="#FFB77B"/>
<stop offset="0.5" stop-color="#FF8B76"/>
<stop offset="1" stop-color="#DF3160"/>
</linearGradient>
<linearGradient id="paint10_linear_53_111" x1="-10.8413" y1="420.796" x2="481.622" y2="419.961" gradientUnits="userSpaceOnUse">
<stop stop-color="#FFB77B"/>
<stop offset="0.5" stop-color="#FF8B76"/>
<stop offset="1" stop-color="#DF3160"/>
</linearGradient>
<linearGradient id="paint11_linear_53_111" x1="-10.8411" y1="420.951" x2="481.623" y2="420.117" gradientUnits="userSpaceOnUse">
<stop stop-color="#FFB77B"/>
<stop offset="0.5" stop-color="#FF8B76"/>
<stop offset="1" stop-color="#DF3160"/>
</linearGradient>
<linearGradient id="paint12_linear_53_111" x1="-10.8418" y1="420.888" x2="481.622" y2="420.052" gradientUnits="userSpaceOnUse">
<stop stop-color="#FFB77B"/>
<stop offset="0.5" stop-color="#FF8B76"/>
<stop offset="1" stop-color="#DF3160"/>
</linearGradient>
<linearGradient id="paint13_linear_53_111" x1="-10.8411" y1="420.644" x2="481.622" y2="419.81" gradientUnits="userSpaceOnUse">
<stop stop-color="#FFB77B"/>
<stop offset="0.5" stop-color="#FF8B76"/>
<stop offset="1" stop-color="#DF3160"/>
</linearGradient>
</defs>
</svg>
