<svg width="190" height="129" viewBox="0 0 190 129" fill="none" xmlns="http://www.w3.org/2000/svg">
<path d="M118.462 -32.7877C121.926 -22.7676 128.264 -11.9978 138.52 -7.72535C140.328 -6.99159 142.315 -6.44074 144.415 -6.1532L146.984 -5.80044C159.039 -4.63145 161.401 -21.7693 149.466 -23.8901C147.502 -24.1585 145.597 -23.7796 143.967 -22.9206C143.347 -22.5942 142.612 -22.3269 141.764 -22.1721C139.693 -21.8528 137.762 -22.1695 135.699 -22.7841C135.213 -22.9248 134.495 -23.1813 134.016 -23.3604C129.843 -25.0044 125.925 -27.6296 122.405 -30.5613C121.356 -31.4413 120.316 -32.369 119.345 -33.3336C118.963 -33.7167 118.285 -33.3214 118.464 -32.7901L118.462 -32.7877Z" fill="url(#paint0_linear_55_617)"/>
<path d="M117.872 -31.9321C115.845 -26.3979 112.949 -20.89 109.017 -16.5799C108.664 -16.2058 108.13 -15.6663 107.752 -15.327C105.674 -13.4105 103.086 -11.7402 100.25 -11.8443C95.2105 -12.0178 90.9849 -8.07261 90.8124 -3.03518C90.5127 4.35453 98.9235 8.98987 104.993 4.8787L107.153 3.44101C112.653 -0.150705 116.138 -5.86645 117.807 -12.0453C118.81 -15.7077 119.265 -19.6071 119.348 -23.2498C119.411 -26.1426 119.286 -28.9887 118.911 -31.8467C118.831 -32.3987 118.044 -32.4767 117.872 -31.9321Z" fill="url(#paint1_linear_55_617)"/>
<path d="M119.922 -4.30621C122.587 4.33514 127.519 13.4318 135.909 17.7468C137.957 18.7636 140.049 19.4478 142.443 19.8171L146.33 20.4075C151.622 21.2097 156.563 17.57 157.366 12.2778C158.678 3.72521 148.823 -2.07668 141.993 3.05212C140.101 4.43994 137.532 4.2375 135.28 3.69189C134.861 3.5918 134.243 3.40958 133.824 3.27409C130.169 2.03239 126.688 -0.114658 123.55 -2.53285C122.617 -3.25876 121.684 -4.03123 120.812 -4.8309C120.43 -5.214 119.759 -4.83282 119.918 -4.30133L119.922 -4.30621Z" fill="url(#paint2_linear_55_617)"/>
<path d="M119.404 -3.61169C117.699 0.59695 115.285 4.8797 112.313 8.2102C111.039 9.6343 109.445 11.0704 107.798 11.9247C107.113 12.2943 106.372 12.569 105.612 12.7177C104.925 12.8333 104.306 12.8169 103.774 12.7149C98.5175 11.7074 93.4362 15.1539 92.4302 20.4129C90.7826 28.8797 100.397 35.0886 107.409 30.2452L110.675 28.0027C115.268 24.9067 118.3 20.1186 119.738 14.9183C120.745 11.3859 121.113 7.51237 121.076 3.98134C121.049 1.44422 120.855 -1.03762 120.442 -3.52625C120.351 -4.06367 119.582 -4.13498 119.404 -3.61169Z" fill="url(#paint3_linear_55_617)"/>
<path d="M121.547 22.895C123.81 31.1889 128.33 39.8906 136.557 43.6547C138.052 44.32 139.712 44.8349 141.491 45.1277L147.137 46.0576C152.933 47.0114 158.401 43.0873 159.359 37.2924C160.983 26.801 148.189 20.7393 141.046 28.3621C140.287 29.1916 139.126 29.5344 137.884 29.5817C136.279 29.6549 134.462 29.2185 132.898 28.6566C130.188 27.6952 127.379 26.0688 124.946 24.3223C124.092 23.7106 123.239 23.0523 122.439 22.3679C122.053 22.0052 121.407 22.3745 121.545 22.8975L121.547 22.895Z" fill="url(#paint4_linear_55_617)"/>
<path d="M121.081 23.4727C119.444 27.1338 117.159 30.8748 114.408 33.6923C113.246 34.8798 111.798 36.0639 110.324 36.6985C109.651 36.9827 109.007 37.1682 108.434 37.1994C107.856 37.2312 107.357 37.1386 106.949 36.9797C101.486 34.8273 95.3093 37.5075 93.154 42.973C89.353 52.8237 100.554 61.5153 109.116 55.6037L113.847 52.2655C115.685 50.9616 117.126 49.5307 118.393 47.8375C122.105 42.833 123.153 36.2446 122.894 30.2484C122.8 27.9825 122.555 25.7721 122.113 23.5567C122.008 23.0364 121.264 22.9688 121.074 23.4713L121.081 23.4727Z" fill="url(#paint5_linear_55_617)"/>
<path d="M124.781 50.0338C127.926 56.5812 132.94 63.1785 140.324 65.191C141.643 65.5324 143.071 65.7303 144.561 65.7327L147.889 65.738C152.144 65.7448 155.598 62.299 155.606 58.0442C155.593 51.0213 146.985 47.7231 142.263 52.7868C141.989 53.0807 141.626 53.3607 141.16 53.5869C139.721 54.2526 137.881 54.1883 136.264 53.929C133.388 53.4296 130.531 52.2269 127.904 50.7822C127.111 50.3446 126.317 49.8671 125.567 49.3646C125.129 49.0635 124.551 49.5529 124.781 50.0338Z" fill="url(#paint6_linear_55_617)"/>
<path d="M125.537 49.8546C124.269 53.4935 122.429 57.1613 119.868 59.9824C118.456 61.4674 116.515 63.069 114.422 62.7474C110.225 62.055 106.26 64.8943 105.565 69.0946C104.435 75.998 112.389 80.6771 117.862 76.4562L120.515 74.4023C121.694 73.4891 122.703 72.4572 123.535 71.3822C125.428 68.9087 126.482 66.1202 127.038 63.1769C127.67 59.6497 127.58 56.1429 127.092 52.6949C126.953 51.7453 126.789 50.8187 126.573 49.8828C126.452 49.3491 125.678 49.3292 125.533 49.8551L125.537 49.8546Z" fill="url(#paint7_linear_55_617)"/>
<path d="M131.093 71.0743C134.734 77.3632 140.24 83.5543 147.757 84.9915C149.097 85.2309 150.538 85.3167 152.026 85.2067L155.343 84.9545C159.585 84.6313 162.765 80.9309 162.443 76.6891C161.891 69.689 153.051 67.0619 148.734 72.4751C148.487 72.79 148.143 73.0965 147.694 73.356C146.312 74.1299 144.471 74.2071 142.839 74.0735C139.932 73.7989 136.993 72.8161 134.262 71.5784C133.439 71.2041 132.609 70.7885 131.824 70.3455C131.365 70.0799 130.825 70.6112 131.093 71.0743Z" fill="url(#paint8_linear_55_617)"/>
<path d="M131.832 70.8376C130.848 74.5618 129.293 78.3633 126.961 81.3716C125.668 82.9617 123.856 84.7047 121.745 84.5467C117.507 84.1776 113.773 87.3164 113.403 91.5551C112.808 98.527 121.1 102.58 126.227 97.9491L128.712 95.6964C129.819 94.6946 130.746 93.5907 131.494 92.4529C133.191 89.8415 134.027 86.9797 134.356 84.0041C134.715 80.4366 134.355 76.9511 133.603 73.548C133.391 72.6116 133.158 71.7021 132.869 70.7839C132.707 70.2616 131.935 70.2989 131.832 70.8376Z" fill="url(#paint9_linear_55_617)"/>
<path d="M140.535 89.6345C144.598 92.5741 149.792 95.0373 154.956 94.0329C156.073 93.817 157.265 93.3203 158.325 92.7752C162.796 90.377 159.629 83.8609 154.979 85.9004C154.392 86.1853 153.902 86.6177 153.543 87.114C153.341 87.397 153.08 87.6781 152.753 87.9384C151.55 88.8567 149.933 89.2209 148.403 89.3648C146.63 89.5311 144.683 89.3911 142.874 89.0909C142.242 88.9854 141.594 88.8553 140.983 88.6987C140.433 88.559 140.079 89.2957 140.537 89.6321L140.535 89.6345Z" fill="url(#paint10_linear_55_617)"/>
<path d="M140.912 89.2201C141.302 92.2112 141.324 95.4432 140.367 98.2886C139.93 99.5328 139.223 100.785 138.058 101.347C135.894 102.414 135.004 105.032 136.068 107.195C137.59 110.334 142.102 110.444 143.787 107.421L144.388 106.365C145.332 104.722 145.827 102.871 145.901 101.058C146.039 98.0347 145.128 95.0486 143.891 92.398C143.299 91.1469 142.647 89.9714 141.877 88.8213C141.553 88.3451 140.81 88.6575 140.917 89.2195L140.912 89.2201Z" fill="url(#paint11_linear_55_617)"/>
<path d="M150.517 99.4807C150.906 102.472 150.929 105.704 149.972 108.549C149.535 109.793 148.827 111.046 147.663 111.608C145.498 112.675 144.609 115.293 145.673 117.456C147.194 120.594 151.707 120.705 153.392 117.682L153.993 116.626C154.937 114.982 155.431 113.132 155.506 111.319C155.643 108.295 154.733 105.309 153.496 102.659C152.903 101.408 152.252 100.232 151.482 99.082C151.157 98.6057 150.414 98.9182 150.521 99.4802L150.517 99.4807Z" fill="url(#paint12_linear_55_617)"/>
<path d="M150.836 99.4823C153.549 101.113 156.217 103.174 158.007 105.765C158.777 106.916 159.428 108.308 159.17 109.645C158.706 112.005 160.242 114.29 162.601 114.754C165.963 115.45 168.795 111.977 167.471 108.839L167.014 107.722C166.276 105.894 165.071 104.327 163.631 103.125C161.248 101.114 158.26 99.9466 155.327 99.2174C153.933 98.8762 152.56 98.6298 151.132 98.4871C150.559 98.432 150.327 99.2205 150.834 99.4847L150.836 99.4823Z" fill="url(#paint13_linear_55_617)"/>
<path d="M119.04 -26.8961L118.65 -27.8023C118.65 -27.8023 114.281 -5.58818 101.311 -2.84445C101.311 -2.84445 113.165 -3.66556 119.04 -26.8961Z" fill="white"/>
<path d="M120.335 1.32194L119.992 0.522967C119.992 0.522967 116.135 20.1307 104.685 22.5528C104.685 22.5528 115.149 21.8277 120.335 1.32194Z" fill="white"/>
<path d="M121.499 -0.70586L121.452 -1.57581C121.452 -1.57581 133.59 14.2973 144.926 11.3982C144.926 11.3982 135.224 15.3836 121.497 -0.703424L121.499 -0.70586Z" fill="white"/>
<path d="M122.096 26.8842L121.795 26.1862C121.795 26.1862 118.435 43.2736 108.457 45.3841C108.457 45.3841 117.573 44.7523 122.096 26.8842Z" fill="white"/>
<path d="M123.159 26.5355L123.119 25.7775C123.119 25.7775 133.695 39.6094 143.574 37.0819C143.574 37.0819 135.12 40.555 123.159 26.5355Z" fill="white"/>
<path d="M126.455 56.1674L126.219 55.6187C126.219 55.6187 123.583 69.0307 115.752 70.6869C115.752 70.6869 122.909 70.1906 126.455 56.1674Z" fill="white"/>
<path d="M127.195 53.1005L127.162 52.5053C127.162 52.5053 135.464 63.3621 143.217 61.3793C143.217 61.3793 136.582 64.1058 127.193 53.1029L127.195 53.1005Z" fill="white"/>
<path d="M133.712 77.1876L133.476 76.6388C133.476 76.6388 130.84 90.0508 123.008 91.707C123.008 91.707 130.165 91.2107 133.712 77.1876Z" fill="white"/>
<path d="M142.282 89.1L141.783 88.7751C141.783 88.7751 147.032 101.394 141.436 107.117C141.436 107.117 147.115 102.734 142.282 89.1Z" fill="white"/>
<path d="M150.827 98.8796L150.329 98.5548C150.329 98.5548 155.577 111.173 149.981 116.897C149.981 116.897 155.66 112.514 150.827 98.8796Z" fill="white"/>
<path d="M150.661 98.6542L150.118 98.9028C150.118 98.9028 163.584 101.236 165.415 109.029C165.415 109.029 164.758 101.886 150.659 98.6566L150.661 98.6542Z" fill="white"/>
<path d="M132.861 76.0536L132.647 75.4978C132.647 75.4978 143.918 83.2258 150.667 78.9225C150.667 78.9225 145.211 83.5791 132.861 76.0536Z" fill="white"/>
<path d="M138.489 87.7974L138.275 87.2417C138.275 87.2417 149.545 94.9697 156.295 90.6664C156.295 90.6664 150.839 95.323 138.489 87.7974Z" fill="white"/>
<path d="M101.689 -122.376C100.945 -121.937 100.702 -120.98 101.138 -120.238C106.848 -110.574 110.749 -96.4671 113.416 -75.8469C115.91 -56.5591 117.243 -32.5728 118.786 -4.80006C119.192 2.5403 119.615 10.1307 120.081 18.0432C121.008 33.8246 123.178 47.9843 126.532 60.1291C129.227 69.8922 132.691 78.3956 136.831 85.3963C143.986 97.5073 150.696 100.976 150.979 101.119C151.748 101.506 152.688 101.195 153.075 100.425C153.461 99.658 153.154 98.722 152.389 98.334C152.328 98.3016 146.035 94.9709 139.328 83.4849C135.372 76.7075 132.053 68.4719 129.461 58.9994C126.213 47.1314 124.108 33.2912 123.201 17.8612C122.736 9.95303 122.315 2.36454 121.907 -4.97338C120.361 -32.8077 119.025 -56.8444 116.517 -76.2455C113.759 -97.5888 109.846 -111.645 103.829 -121.824C103.39 -122.567 102.433 -122.81 101.691 -122.374L101.689 -122.376Z" fill="url(#paint14_linear_55_617)"/>
<defs>
<linearGradient id="paint0_linear_55_617" x1="138.19" y1="-5.72246" x2="137.901" y2="-33.7592" gradientUnits="userSpaceOnUse">
<stop stop-color="#FFB77B"/>
<stop offset="0.5" stop-color="#FF8B76"/>
<stop offset="1" stop-color="#DF3160"/>
</linearGradient>
<linearGradient id="paint1_linear_55_617" x1="105.418" y1="6.28065" x2="105.018" y2="-32.247" gradientUnits="userSpaceOnUse">
<stop stop-color="#FFB77B"/>
<stop offset="0.5" stop-color="#FF8B76"/>
<stop offset="1" stop-color="#DF3160"/>
</linearGradient>
<linearGradient id="paint2_linear_55_617" x1="139.006" y1="20.5245" x2="138.738" y2="-5.263" gradientUnits="userSpaceOnUse">
<stop stop-color="#FFB77B"/>
<stop offset="0.5" stop-color="#FF8B76"/>
<stop offset="1" stop-color="#DF3160"/>
</linearGradient>
<linearGradient id="paint3_linear_55_617" x1="106.982" y1="31.8154" x2="106.612" y2="-3.90988" gradientUnits="userSpaceOnUse">
<stop stop-color="#FFB77B"/>
<stop offset="0.5" stop-color="#FF8B76"/>
<stop offset="1" stop-color="#DF3160"/>
</linearGradient>
<linearGradient id="paint4_linear_55_617" x1="140.824" y1="46.2039" x2="140.571" y2="21.9478" gradientUnits="userSpaceOnUse">
<stop stop-color="#FFB77B"/>
<stop offset="0.5" stop-color="#FF8B76"/>
<stop offset="1" stop-color="#DF3160"/>
</linearGradient>
<linearGradient id="paint5_linear_55_617" x1="107.983" y1="57.4005" x2="107.629" y2="23.1955" gradientUnits="userSpaceOnUse">
<stop stop-color="#FFB77B"/>
<stop offset="0.5" stop-color="#FF8B76"/>
<stop offset="1" stop-color="#DF3160"/>
</linearGradient>
<linearGradient id="paint6_linear_55_617" x1="140.425" y1="65.7332" x2="140.252" y2="49.0361" gradientUnits="userSpaceOnUse">
<stop stop-color="#FFB77B"/>
<stop offset="0.5" stop-color="#FF8B76"/>
<stop offset="1" stop-color="#DF3160"/>
</linearGradient>
<linearGradient id="paint7_linear_55_617" x1="116.754" y1="77.9459" x2="116.458" y2="49.488" gradientUnits="userSpaceOnUse">
<stop stop-color="#FFB77B"/>
<stop offset="0.5" stop-color="#FF8B76"/>
<stop offset="1" stop-color="#DF3160"/>
</linearGradient>
<linearGradient id="paint8_linear_55_617" x1="146.995" y1="85.2099" x2="146.833" y2="69.5811" gradientUnits="userSpaceOnUse">
<stop stop-color="#FFB77B"/>
<stop offset="0.5" stop-color="#FF8B76"/>
<stop offset="1" stop-color="#DF3160"/>
</linearGradient>
<linearGradient id="paint9_linear_55_617" x1="124.206" y1="99.8186" x2="123.902" y2="70.4203" gradientUnits="userSpaceOnUse">
<stop stop-color="#FFB77B"/>
<stop offset="0.5" stop-color="#FF8B76"/>
<stop offset="1" stop-color="#DF3160"/>
</linearGradient>
<linearGradient id="paint10_linear_55_617" x1="150.591" y1="94.1986" x2="150.503" y2="85.4904" gradientUnits="userSpaceOnUse">
<stop stop-color="#FFB77B"/>
<stop offset="0.5" stop-color="#FF8B76"/>
<stop offset="1" stop-color="#DF3160"/>
</linearGradient>
<linearGradient id="paint11_linear_55_617" x1="140.972" y1="109.532" x2="140.754" y2="88.515" gradientUnits="userSpaceOnUse">
<stop stop-color="#FFB77B"/>
<stop offset="0.5" stop-color="#FF8B76"/>
<stop offset="1" stop-color="#DF3160"/>
</linearGradient>
<linearGradient id="paint12_linear_55_617" x1="157.089" y1="125.143" x2="146.995" y2="105.333" gradientUnits="userSpaceOnUse">
<stop stop-color="#3C0F6D"/>
<stop offset="1" stop-color="#DF3160"/>
</linearGradient>
<linearGradient id="paint13_linear_55_617" x1="167.087" y1="120.05" x2="156.993" y2="100.237" gradientUnits="userSpaceOnUse">
<stop stop-color="#3C0F6D"/>
<stop offset="1" stop-color="#DF3160"/>
</linearGradient>
<linearGradient id="paint14_linear_55_617" x1="168.291" y1="-87.9397" x2="86.1472" y2="66.4701" gradientUnits="userSpaceOnUse">
<stop stop-color="#3C0F6D"/>
<stop offset="1" stop-color="#DF3160"/>
</linearGradient>
</defs>
</svg>
